STARTFONT 2.1
FONT -FontForge-Fontdiner Swanky-Book-R-Normal--36-360-72-72-P-227-ISO10646-1
SIZE 36 72 72
FONTBOUNDINGBOX 51 55 -9 -18
COMMENT "Generated by fontforge, http://fontforge.sourceforge.net"
COMMENT "Copyright (c) 2010 by Font Diner, Inc. All rights reserved."
STARTPROPERTIES 39
FOUNDRY "FontForge"
FAMILY_NAME "Fontdiner Swanky"
WEIGHT_NAME "Book"
SLANT "R"
SETWIDTH_NAME "Normal"
ADD_STYLE_NAME ""
PIXEL_SIZE 36
POINT_SIZE 360
RESOLUTION_X 72
RESOLUTION_Y 72
SPACING "P"
AVERAGE_WIDTH 227
CHARSET_REGISTRY "ISO10646"
CHARSET_ENCODING "1"
FONTNAME_REGISTRY ""
CHARSET_COLLECTIONS "ISO10646-1"
FONT_NAME "FontdinerSwanky-Regular"
FACE_NAME "Fontdiner Swanky Regular"
COPYRIGHT "Copyright (c) 2010 by Font Diner, Inc. All rights reserved."
FONT_VERSION "1.001"
FONT_ASCENT 29
FONT_DESCENT 7
UNDERLINE_POSITION -4
UNDERLINE_THICKNESS 2
X_HEIGHT 19
CAP_HEIGHT 21
RAW_ASCENT 799
RAW_DESCENT 200
NORM_SPACE 12
RELATIVE_WEIGHT 40
RELATIVE_SETWIDTH 50
SUPERSCRIPT_X 0
SUPERSCRIPT_Y 16
SUPERSCRIPT_SIZE 22
SUBSCRIPT_X 0
SUBSCRIPT_Y 4
SUBSCRIPT_SIZE 22
AVG_LOWERCASE_WIDTH 226
AVG_UPPERCASE_WIDTH 278
ENDPROPERTIES
CHARS 231
STARTCHAR space
ENCODING 32
SWIDTH 320 0
DWIDTH 12 0
BBX 1 1 0 0
BITMAP
00
ENDCHAR
STARTCHAR exclam
ENCODING 33
SWIDTH 305 0
DWIDTH 11 0
BBX 11 30 0 0
BITMAP
1FE0
1FE0
1FE0
1FC0
1FC0
1FC0
1FC0
1FC0
1F80
1F80
1F80
1F80
1F80
1F80
1F00
1F00
1F00
1F00
1F00
1E00
1E00
1E00
1E00
0200
0000
3C00
7E00
FE00
7E00
7E00
ENDCHAR
STARTCHAR quotedbl
ENCODING 34
SWIDTH 369 0
DWIDTH 13 0
BBX 13 10 0 14
BITMAP
FDF8
FDF8
7DF8
7CF8
7CF8
7CF0
78F0
78F0
78F0
78F0
ENDCHAR
STARTCHAR numbersign
ENCODING 35
SWIDTH 702 0
DWIDTH 25 0
BBX 25 24 0 1
BITMAP
00001000
03E0F000
03E0F000
03E0F000
03E0F000
7FFFF000
7FFFFF80
7FFFFF80
7FFFFF00
7FFFF000
03C1E000
03C1E000
03C1E000
07C1E000
07C1E000
7FFFFF00
FFFFFF00
FFFFFF00
FFFFFF00
0783E000
0783E000
0783E000
0783E000
0783E000
ENDCHAR
STARTCHAR dollar
ENCODING 36
SWIDTH 545 0
DWIDTH 20 0
BBX 19 30 0 -4
BITMAP
03E000
01E000
01E000
01E020
01E040
0FF840
3FFEC0
7F7FC0
7C0FC0
F803C0
FC01C0
FE00C0
7FC040
7FF840
3FFE00
1FFF80
47FFC0
41FFE0
603FE0
700FE0
7803E0
7C03E0
7F87E0
7FFFC0
6FFF80
41F800
80F000
00F000
01F000
01F000
ENDCHAR
STARTCHAR percent
ENCODING 37
SWIDTH 657 0
DWIDTH 24 0
BBX 24 30 0 -2
BITMAP
0000C0
0001F8
3F81F0
7FC1F0
7BE3E0
F1E3E0
F1E7E0
F1E7C0
7BE7C0
7FCF80
3F8F80
001F00
001F00
001E00
003E00
003E00
007C00
007C00
007800
00F8FC
00F1FE
01F3EF
01F3C7
01E387
03E3CF
03C3FF
07C1FE
0780FC
078000
008000
ENDCHAR
STARTCHAR ampersand
ENCODING 38
SWIDTH 668 0
DWIDTH 24 0
BBX 28 32 1 -5
BITMAP
03F00000
0FFC0000
1FFE0000
3E1F0000
3E0F0000
3C0F0000
3E0F0000
3F0F0000
1F1E0000
1F9E0000
0FFC0000
07F88000
07F04000
07F04000
1FF82000
3EFC3000
3CFE3800
7C7F3800
7C3F7C00
FC1FFE00
FC1FE100
FC0FE0F0
FF07FFC0
7FFFFF00
7FFFFE00
3FF9F800
0FE1F000
0003C000
00038000
00060000
00040000
00080000
ENDCHAR
STARTCHAR quotesingle
ENCODING 39
SWIDTH 177 0
DWIDTH 6 0
BBX 6 9 0 15
BITMAP
FC
FC
7C
7C
7C
7C
78
78
78
ENDCHAR
STARTCHAR parenleft
ENCODING 40
SWIDTH 384 0
DWIDTH 14 0
BBX 12 35 2 -5
BITMAP
0030
00E0
03C0
0780
1F00
1F00
3E00
7E00
7C00
7C00
FC00
F800
F800
F800
F800
F800
F800
F800
F800
F800
F800
FC00
FC00
FC00
7C00
7E00
7E00
3E00
1F00
1F00
0F80
07C0
03C0
00E0
0030
ENDCHAR
STARTCHAR parenright
ENCODING 41
SWIDTH 375 0
DWIDTH 14 0
BBX 12 35 0 -5
BITMAP
C000
7000
3C00
1E00
0F00
0F80
07C0
07C0
03E0
03E0
03E0
03F0
01F0
01F0
01F0
01F0
01F0
01F0
01F0
01F0
03F0
03F0
03F0
03E0
03E0
07E0
07C0
0FC0
0F80
1F80
1F00
3E00
3800
7000
C000
ENDCHAR
STARTCHAR asterisk
ENCODING 42
SWIDTH 640 0
DWIDTH 23 0
BBX 23 23 0 0
BITMAP
010200
0F8700
1F87C0
0F87F0
07CFE0
07CFC0
03EF80
01FF00
78FF00
7FFFFE
7FFFFE
7FFFFE
FFFFFE
FCFE1E
01FF00
03FF80
03CFC0
07CFC0
0FCFF0
1F87C0
078700
030400
010000
ENDCHAR
STARTCHAR plus
ENCODING 43
SWIDTH 607 0
DWIDTH 22 0
BBX 21 21 0 1
BITMAP
00FC00
00FC00
00FC00
00FC00
00FC00
00FC00
00FC00
7FFFF0
FFFFF8
FFFFF8
FFFFF8
FFFFF8
F0F800
00F800
00F800
00F800
00F800
00F800
00F800
00F800
003800
ENDCHAR
STARTCHAR comma
ENCODING 44
SWIDTH 226 0
DWIDTH 8 0
BBX 8 11 0 -8
BITMAP
18
7E
7F
FF
FF
7F
1E
1E
1C
30
20
ENDCHAR
STARTCHAR hyphen
ENCODING 45
SWIDTH 549 0
DWIDTH 20 0
BBX 16 7 2 9
BITMAP
F000
FFFF
FFFF
FFFF
FFFE
FFFE
F800
ENDCHAR
STARTCHAR period
ENCODING 46
SWIDTH 226 0
DWIDTH 8 0
BBX 8 6 0 -3
BITMAP
3C
7E
FF
FF
7E
3C
ENDCHAR
STARTCHAR slash
ENCODING 47
SWIDTH 600 0
DWIDTH 22 0
BBX 24 35 -1 -3
BITMAP
000020
000030
00007C
0000FF
0000FE
0001FE
0001FC
0003F8
0003F8
0007F0
000FF0
000FE0
001FC0
001FC0
003F80
007F00
007F00
00FE00
00FE00
01FC00
01F800
03F800
07F000
07E000
0FE000
0FC000
1FC000
1F8000
3F0000
7F0000
7E0000
FE0000
7C0000
380000
080000
ENDCHAR
STARTCHAR zero
ENCODING 48
SWIDTH 740 0
DWIDTH 27 0
BBX 25 23 1 0
BITMAP
003E0000
03FFE000
0FFFF000
1FFFFC00
3FC1FE00
7F007E00
7E007F00
FE003F00
FC003F80
FC001F80
FC001F80
FC001F80
FC001F80
FC001F80
FC003F80
FE003F00
7E003F00
7F007E00
3F80FC00
1FFFF800
0FFFF000
03FFE000
00FF0000
ENDCHAR
STARTCHAR one
ENCODING 49
SWIDTH 503 0
DWIDTH 18 0
BBX 23 27 -3 -1
BITMAP
000700
007F00
0FFF00
FFFF00
01FF00
003F00
003F00
003F00
003F00
003F00
003F00
003F00
003F00
003F00
003F00
003F00
003F00
003F00
003F00
003F00
003F00
003F00
003F00
003F00
00FFC0
03FFF0
3FFFFE
ENDCHAR
STARTCHAR two
ENCODING 50
SWIDTH 638 0
DWIDTH 23 0
BBX 22 29 0 -1
BITMAP
400000
400000
603E00
31FFC0
3BFFE0
3FFFF0
3F83F8
3F00F8
3E00FC
3C00FC
3C00FC
1800FC
1800FC
1001F8
1003F0
100FF4
103FC4
00FF84
01FE08
07F018
0FE018
1F8038
3F0038
7F0078
7FFFF8
FFFFF8
FFFFF8
FFFFF8
0FFFF8
ENDCHAR
STARTCHAR three
ENCODING 51
SWIDTH 620 0
DWIDTH 22 0
BBX 23 32 -1 -4
BITMAP
400000
400000
600000
20FF00
33FFC0
3FFFF0
3FEFF8
1F01F8
1E00FC
1C00FC
1800FC
1800FC
1000FC
1001F8
00EFF8
00FFF0
00FFF8
00FFF8
1003FC
1001FC
1800FE
1800FE
1C00FE
3C00FC
3F01FC
3F87F8
3FFFF0
73FFE0
61FF80
401800
800000
800000
ENDCHAR
STARTCHAR four
ENCODING 52
SWIDTH 606 0
DWIDTH 22 0
BBX 23 30 -2 -2
BITMAP
000020
000020
000060
0000E0
0001E0
0003E0
0007E0
0007E0
000FE0
001FC0
003FC0
007FC0
00FFC0
01F7C2
01F7C2
03E7C2
07C7C6
0F87C6
1F07CE
3FFFFE
3FFFFE
FFFFFE
0007CE
0007C6
0007C6
0007C2
0007C2
0007C2
003FF0
07FFFE
ENDCHAR
STARTCHAR five
ENCODING 53
SWIDTH 610 0
DWIDTH 22 0
BBX 21 29 0 -2
BITMAP
000008
0007F0
03FFF0
FFFFF0
FFFFF0
FFFE70
7C0070
7C0030
7C0030
7C0020
7DFC20
7FFF90
3FFFC0
3FFFE0
3C0FF0
3007F0
2003F8
0003F8
2001F8
2001F8
2003F8
3003F0
7C07F0
7FBFF0
7FFFE0
7FFFC0
67FF80
41FE00
800000
ENDCHAR
STARTCHAR six
ENCODING 54
SWIDTH 619 0
DWIDTH 22 0
BBX 22 33 0 -3
BITMAP
000020
000020
000020
000060
000060
00FC60
03FEE0
07FFF0
0FFFF0
1FFFF0
1F81F0
3F0070
3F0030
7F0010
7FFF88
7FFFE0
FFFFF0
FF83F8
FF01F8
FE00FC
FE00FC
FC007C
FC007C
FC007C
FC007C
7E00FC
7E00F8
7E01F8
3F03F0
1FFFE0
0FFFC0
03FF80
001000
ENDCHAR
STARTCHAR seven
ENCODING 55
SWIDTH 598 0
DWIDTH 22 0
BBX 23 28 0 -2
BITMAP
FC0000
FFFFFE
7FFFFE
7FFFFE
7FFFFC
3C03FC
3C03F8
3803F8
1803F8
1807F0
1807F0
1007E0
1007E0
000FE0
000FC0
000FC0
000F80
001F80
001F80
001F00
001F00
003E00
003E00
003E00
00FF00
03FF80
0FFFE0
30FFFC
ENDCHAR
STARTCHAR eight
ENCODING 56
SWIDTH 642 0
DWIDTH 23 0
BBX 23 28 0 -3
BITMAP
01FF00
07FFC0
0FFFF0
1F83F0
3F01F8
3F01F8
3F00FC
3F00FC
3F00FC
3F00F8
3F01F8
1F83F8
1FFFF0
0FFFF0
3FFFF8
3FEFFC
7F81FC
FF00FE
FE00FE
FE00FE
FE00FE
FE00FE
FF00FE
7F01FC
3F83FC
1FFFF8
0FFFE0
03FF80
ENDCHAR
STARTCHAR nine
ENCODING 57
SWIDTH 610 0
DWIDTH 22 0
BBX 22 31 0 -5
BITMAP
00FC00
07FF00
1FFFC0
3FEFE0
3F03F0
7E01F0
7E01F8
FC01F8
FC00F8
FC00FC
FC00FC
FC01FC
FE01FC
7E03FC
7F87FC
3FFFFC
1FFFF8
0FFFF8
23FDF8
2001F8
3003F0
3C07F0
3E0FE0
1FFFC0
1FFFC0
1FFF80
1DFE00
181000
180000
100000
100000
ENDCHAR
STARTCHAR colon
ENCODING 58
SWIDTH 223 0
DWIDTH 8 0
BBX 7 15 0 -3
BITMAP
7C
FE
FE
FE
FE
3C
00
00
00
3C
7E
FE
FE
FE
7C
ENDCHAR
STARTCHAR semicolon
ENCODING 59
SWIDTH 228 0
DWIDTH 8 0
BBX 8 20 0 -8
BITMAP
3C
7E
FF
FE
7E
3C
00
00
00
10
7C
FE
FE
FE
7E
1E
1C
38
30
40
ENDCHAR
STARTCHAR less
ENCODING 60
SWIDTH 563 0
DWIDTH 20 0
BBX 21 24 0 0
BITMAP
000010
000030
0000F0
0003F8
0007F8
001FF8
007FF8
01FFF0
03FFC0
0FFF00
3FFC00
FFF000
7FC000
3FC000
0FE000
03F800
01FC00
007E00
003F00
000FC0
0003E0
0001F0
000070
000030
ENDCHAR
STARTCHAR equal
ENCODING 61
SWIDTH 531 0
DWIDTH 19 0
BBX 19 14 0 3
BITMAP
FC0000
FFFFE0
FFFFE0
FFFFE0
FFFFE0
FFFFE0
000000
000000
FFFFE0
FFFFE0
FFFFE0
FFFFE0
FFFFE0
00FFE0
ENDCHAR
STARTCHAR greater
ENCODING 62
SWIDTH 576 0
DWIDTH 21 0
BBX 21 24 0 0
BITMAP
400000
700000
7C0000
7E0000
7F8000
FFE000
FFF000
3FFC00
0FFF00
03FF80
00FFE0
007FF8
001FF0
001FE0
003F80
007F00
00FC00
03F800
07E000
0F8000
1F0000
3C0000
380000
200000
ENDCHAR
STARTCHAR question
ENCODING 63
SWIDTH 592 0
DWIDTH 21 0
BBX 21 33 0 -1
BITMAP
200000
200000
300000
300000
3FFE00
7FFF80
7C3FC0
700FE0
6003F0
4001F8
8001F8
8001F8
0001F8
0001F8
0001F8
0003F8
0407F0
07FFE0
07FFC0
07FF00
07E000
0FC000
0FC000
0F8000
0F8000
010000
000000
3E0000
7F0000
7F8000
7F8000
7F0000
1E0000
ENDCHAR
STARTCHAR at
ENCODING 64
SWIDTH 792 0
DWIDTH 29 0
BBX 30 25 0 -1
BITMAP
003FF000
01FFFE00
03FFFF00
0FE00F80
1F8007C0
3F0FC1E0
3E3FF1F0
7C78F8F0
787078F8
F8F878F8
F8787878
F8707878
F80E787C
F87FF878
F8FCF878
F8F07878
F8F07878
78F878F8
7CFFF8F0
7E3FF8F0
3E0079E0
1F807FC0
0FC03F80
03F80400
00FFE000
ENDCHAR
STARTCHAR A
ENCODING 65
SWIDTH 788 0
DWIDTH 28 0
BBX 42 32 -6 -8
BITMAP
00FFFC000000
000FFC000000
0007FE000000
0001FE000000
00007F000000
00007F000000
00007F800000
0000FF800000
0000FFC00000
0001EFC00000
0001CFE00000
0003C7E00000
000387F00000
000783F00000
000703F80000
000FFFF80000
000FFFFC0000
001FFFFC0000
001FFEFE0000
003800FE0000
0038007F0000
0070007F0000
01F0003F8000
07F8003F8000
1FFE001FC000
FFFF801FE000
0001C01FFC00
0000001FFFC0
0000003FF800
0000007F8000
000000F80000
000001800000
ENDCHAR
STARTCHAR B
ENCODING 66
SWIDTH 774 0
DWIDTH 28 0
BBX 32 28 -4 -4
BITMAP
FFFFE000
3FFFFF80
0FFFFFF0
03FFFFFC
00FC03FE
00FC007E
00FC003F
00FC003F
00FC003F
00FC007E
00FC01FE
00FE1FFC
00FFFFF8
00FFFFE0
00FFFFE0
00FE7FF0
007E07F8
007E01FC
007E00FE
007E00FE
007E00FE
007E01FC
007E07FC
007E7FF8
00FFFFE0
03FFFF00
0FFFE000
7FC00000
ENDCHAR
STARTCHAR C
ENCODING 67
SWIDTH 766 0
DWIDTH 28 0
BBX 26 30 1 -3
BITMAP
00000040
00000040
001F00C0
00FFE0C0
07FFF9C0
0FFFFF80
1FF87F80
3FC01F80
7F800F80
7F000780
FF000380
FE000100
FE000100
FE000100
FC000100
FC000000
FC000000
FE000000
FE000100
FE000100
7E000100
7F000300
3F800300
3FC00780
1FE01F80
0FFFFF80
07FFFC80
01FFF880
003FC040
00000040
ENDCHAR
STARTCHAR D
ENCODING 68
SWIDTH 833 0
DWIDTH 30 0
BBX 34 25 -4 -1
BITMAP
FFFFFF0000
0FFFFFE000
03FFFFF800
00FF87FC00
003F807E00
003F803F00
003F801F80
003F801F80
003F801FC0
003F800FC0
003F800FC0
001F800FC0
001F800FC0
001F800FC0
001F800FC0
001F000FC0
001F001F80
001F001F80
001F003F80
001F003F00
001F00FE00
003FFFFC00
00FFFFF800
01FFFFC000
1FFF000000
ENDCHAR
STARTCHAR E
ENCODING 69
SWIDTH 781 0
DWIDTH 28 0
BBX 30 27 -3 -1
BITMAP
000003FC
007FFFFC
FFFFFFFC
0FFFFE7C
01FE007C
00FE0038
007E0438
007E0418
007E0418
007E0C08
007E0C08
007E1C08
007E3C04
007FFC08
007FFC08
007FFC08
007FFC08
007E3C18
007E1C18
007E1C18
007E0C38
007E0438
007E0438
007E0078
03FFFFF8
0FFFFFF8
7FFFFFF8
ENDCHAR
STARTCHAR F
ENCODING 70
SWIDTH 731 0
DWIDTH 26 0
BBX 28 28 -3 -2
BITMAP
000000F0
001FFFF0
FFFFFFF0
1FFFFFF0
03FE00F0
00FE0070
00FE0070
00FE0870
00FE0830
00FE0830
00FE1810
00FE1810
00FE3810
00FFF810
00FFF810
007FF800
007FF800
007C3800
007C3800
007C1800
007C1800
007C0800
007C0800
007C0000
007C0000
01FF0000
0FFFE000
7FFFFC00
ENDCHAR
STARTCHAR G
ENCODING 71
SWIDTH 828 0
DWIDTH 30 0
BBX 32 28 1 -1
BITMAP
00000040
000000C0
001FC1C0
01FFF380
07FFFF80
0FFFFF80
1FF03F80
3FC01F80
7F800780
7F000380
FF000380
FE000180
FE000180
FE000080
FE100000
FE0FFFFF
FE00FFF0
FE003FC0
FE000FC0
FE000FC0
7F000FC0
7F000FC0
3F800FC0
3FC01FC0
1FF07FC0
0FFFFDC0
03FFF8C0
00FFE040
ENDCHAR
STARTCHAR H
ENCODING 72
SWIDTH 797 0
DWIDTH 29 0
BBX 36 28 -4 -3
BITMAP
0000FFFFE0
00000FFF00
C00013FC00
3FFFE1F800
0FFF01F800
01FC01F800
01FC01F800
00FC01F800
00FC01F800
00FC01F800
00FC01F800
00FC01F800
00FC01F800
00FFFFF800
00FFFFF800
00FFFFF800
00FFF1F800
00FC01F800
00FC01F800
00FC01F800
00FC01F800
00FC01F800
00FC01F800
00FC0FFF00
00FCFFFFF0
01FC000000
0FFF800000
7FFFFC0000
ENDCHAR
STARTCHAR I
ENCODING 73
SWIDTH 445 0
DWIDTH 16 0
BBX 22 28 -3 -3
BITMAP
FFFFFC
1FFFF0
07FF80
00FE00
00FE00
00FE00
00FE00
00FE00
00FE00
00FE00
00FE00
007E00
007E00
007C00
007C00
007C00
007C00
007C00
007C00
007C00
007C00
007C00
007C00
007C00
007C00
00FE00
07FFC0
7FFFFC
ENDCHAR
STARTCHAR J
ENCODING 74
SWIDTH 718 0
DWIDTH 26 0
BBX 34 32 -4 -5
BITMAP
00000000C0
0000003F00
00001FFC00
0007FFF000
01FFFFC000
0000FF8000
00001FC000
00001FC000
00000FC000
00000FC000
00000FC000
00000FC000
00000FC000
000007E000
000007E000
000007E000
000007E000
000007E000
000007E000
000007E000
FFFF07E000
3FFC07E000
0FF007E000
03E007E000
03E00FC000
01E00FC000
01F01F8000
01F81F8000
00FFFF0000
007FFE0000
001FF80000
0001000000
ENDCHAR
STARTCHAR K
ENCODING 75
SWIDTH 934 0
DWIDTH 34 0
BBX 44 29 -3 -3
BITMAP
FFFFFE000000
1FFFC8000180
03FF07FFFE00
00FE00FFF000
00FE001F8000
00FE007E0000
00FE01F80000
00FE03F00000
00FE0FC00000
00FE3F800000
00FE7E000000
007FFE000000
007FFF000000
007FDF800000
007F0FC00000
007E0FC00000
007E07E00000
007C03F00000
007C03F80000
007C01FC0000
007C00FC0000
007C007E0000
007C007F0000
00FF003F8000
07FFE01FC000
1FFFFE1FE000
2000013FF800
000000FFFF00
000007FFFFF0
ENDCHAR
STARTCHAR L
ENCODING 76
SWIDTH 712 0
DWIDTH 26 0
BBX 28 28 -3 0
BITMAP
FFFFFE00
0FFFE000
01FF8000
00FE0000
007E0000
007E0000
007E0000
007E0000
007E0000
007E0000
007E0000
007E0000
007E0010
007E0010
007E0010
007E0010
007E0030
007E0030
007E0030
007E0070
007E0070
007E0070
007E00F0
003E00F0
00FFFFF0
03FFFFF0
0FFFFFF0
7E000000
ENDCHAR
STARTCHAR M
ENCODING 77
SWIDTH 1033 0
DWIDTH 37 0
BBX 43 27 -3 -1
BITMAP
FF800007FFE0
1FFF0007FF00
07FF000FFC00
01FF800FF000
00FF801FF000
00FFC01FF000
00FFC03FF000
00FFE03FF000
007FE07FE000
007FF0F7E000
007FF0F7E000
007BF9E7E000
007BF9E7E000
0079FFC7E000
0079FFC7E000
0078FF87E000
0078FF87E000
00787F07E000
00783F07E000
00783E07E000
00781E07E000
00781C07E000
00380C07E000
0038080FF000
00FE003FFC00
07FFE1FFFFC0
FFFFFE000020
ENDCHAR
STARTCHAR N
ENCODING 78
SWIDTH 840 0
DWIDTH 30 0
BBX 37 28 -3 -2
BITMAP
F400FFFFF8
3FFE0FFFC0
0FFF03FF00
01FF807800
007FC03800
007FC03800
007FE03800
007FF03800
007FF83800
0077FC3800
0073FE3800
0071FE3800
0070FF3800
00707FB800
00707FF800
00703FF800
00701FF800
00700FF800
007007F800
007003F800
007001F800
007001F800
01FE00F800
07FF807800
3FFFF03800
FFFFFF1800
0000000800
0000000800
ENDCHAR
STARTCHAR O
ENCODING 79
SWIDTH 808 0
DWIDTH 29 0
BBX 27 22 1 0
BITMAP
007FE000
03FFF800
0FFFFE00
1FF0FF00
3FC03F80
7F801FC0
7F000FC0
FE000FE0
FE000FE0
FC0007E0
FC0007E0
FC0007E0
FC0007E0
FE000FE0
FE000FE0
7E000FC0
7F001FC0
3F803F80
1FE0FF00
0FFFFE00
07FFF800
00FFE000
ENDCHAR
STARTCHAR P
ENCODING 80
SWIDTH 746 0
DWIDTH 27 0
BBX 30 24 -3 -1
BITMAP
FFFFE000
1FFFFF80
03FFFFE0
00FFFFF8
00FC01FC
00FC007C
00FC007C
00FC007C
00FC00FC
00FC03F8
00FFFFE0
00FFFF80
00FFF800
00FE0000
00FE0000
00FE0000
00FE0000
00FE0000
00FE0000
00FE0000
00FE0000
03FF8000
0FFFF000
7FFFFE00
ENDCHAR
STARTCHAR Q
ENCODING 81
SWIDTH 789 0
DWIDTH 28 0
BBX 32 34 1 -11
BITMAP
00FFE000
03FFF800
0FFFFE00
1FF0FF00
3F807F00
7F003F80
7F001FC0
7E001FC0
FE000FC0
FC000FC0
FC000FE0
FC000FC0
FE000FC0
FE000FC0
7E000FC0
7F001F80
3F003F80
3F807F00
1FE1FE00
0FFFFC00
03FFF800
00FFE000
0007E000
0003F000
0003F000
0003F800
0003FFC0
0001FFFF
0003FFE0
0007FF00
000FF000
001F0000
00380000
00C00000
ENDCHAR
STARTCHAR R
ENCODING 82
SWIDTH 826 0
DWIDTH 30 0
BBX 42 32 -3 -9
BITMAP
FFFFF8000000
0FFFFFC00000
03FFFFF00000
00FE1FF80000
00FC00FC0000
00FC007C0000
00FC003E0000
007C007C0000
007C00FC0000
007C07F00000
007FFFE00000
007FFF000000
007FFF800000
007E0F800000
007E0FC00000
007E07E00000
007E07E00000
007E03F00000
007E03F80000
007E01F80000
00FF01FC0000
03FFC0FE0000
0FFFF8FE0000
7FFFFE7FFF40
0000003FFF00
0000003FFC00
0000003FE000
0000007F8000
000000FC0000
000001F00000
000001800000
000006000000
ENDCHAR
STARTCHAR S
ENCODING 83
SWIDTH 661 0
DWIDTH 24 0
BBX 23 29 0 -4
BITMAP
000002
003002
07FF86
1FFFEE
3FCFFE
7E00FC
7C007C
FC001C
FE000C
FF8004
7FF804
7FFF00
3FFFE0
1FFFF0
07FFFC
00FFFC
200FFE
2003FE
1000FE
38007E
3C007E
3E00FE
3F81FC
3FFFF8
33FFE0
207F80
200000
200000
400000
ENDCHAR
STARTCHAR T
ENCODING 84
SWIDTH 754 0
DWIDTH 27 0
BBX 25 25 1 -1
BITMAP
FFFFFF80
7FFFFF80
7FFFFF00
787F0F00
707F0700
707F0700
707E0700
607E0300
607E0300
607E0300
407E0100
407E0100
007E0100
007E0000
007E0000
007E0000
007E0000
007E0000
007E0000
003E0000
003E0000
00FF0000
03FFC000
0FFFF800
3FFFFE00
ENDCHAR
STARTCHAR U
ENCODING 85
SWIDTH 725 0
DWIDTH 26 0
BBX 32 25 -3 -1
BITMAP
00003FFF
FFC00FFC
1FFF83F8
03FC01E0
03F801E0
03F801E0
03F801E0
03F001E0
03F001E0
03F001E0
03F001E0
03F001E0
03F000E0
03F000E0
03F000E0
03F000E0
03F000E0
03F801C0
03F801C0
01FC03C0
01FE0780
00FFFF80
007FFF00
003FFC00
000FF000
ENDCHAR
STARTCHAR V
ENCODING 86
SWIDTH 786 0
DWIDTH 28 0
BBX 38 29 -5 -3
BITMAP
0000380000
0003C00000
003F878000
07FE01FE00
FFFC007FFC
07FE003FE0
00FE001F00
007E001C00
007F003C00
003F003800
003F807800
001F807000
001FC0F000
000FC0E000
000FE1E000
0007E1C000
0007E38000
0003F38000
0003F70000
0003FF0000
0001FE0000
0001FE0000
0000FC0000
0000FC0000
0000780000
0000780000
0000300000
0000300000
0000100000
ENDCHAR
STARTCHAR W
ENCODING 87
SWIDTH 1026 0
DWIDTH 37 0
BBX 47 28 -5 -4
BITMAP
00000C080000
01FFF007F000
FFFF8080FFF2
07FF00803FFC
00FC01C00FC0
00FE01C00E00
00FE03E00E00
007E03E01E00
007F03F01C00
003F07F81C00
003F87F83800
003F8FFC3800
001F8FFC7800
001FDFFE7000
000FDF7E7000
000FFE7FF000
0007FE7FE000
0007FC3FE000
0007FC3FC000
0003F81FC000
0003F81FC000
0001F00F8000
0001F00F8000
0000E0070000
0000E0070000
0000C0030000
000040020000
000040020000
ENDCHAR
STARTCHAR X
ENCODING 88
SWIDTH 860 0
DWIDTH 31 0
BBX 38 24 -4 -2
BITMAP
000FFC0000
3FFFE00FF8
01FF07FFC0
003F80FF00
001FC0FC00
001FC1F000
000FE3E000
0007F7C000
0003FF8000
0001FE0000
0001FE0000
0000FF0000
0001FF0000
0003FF8000
0007FFC000
001F9FE000
003E0FF000
007C07F000
01F803F800
07F803FC00
1FFE01FF00
FFFF83FFC0
00000FFFFC
00003FC000
ENDCHAR
STARTCHAR Y
ENCODING 89
SWIDTH 848 0
DWIDTH 31 0
BBX 38 27 -5 -3
BITMAP
0000300000
FFFFC00000
1FFF820000
03FE01FFFC
007F007FF0
003F801F80
001FC01E00
000FE03C00
0007F07800
0003F0F000
0001F9E000
0001FFC000
0000FF8000
00007F0000
00003E0000
00003E0000
00003E0000
00003F0000
00003F0000
00003F0000
00003F0000
00003F0000
00003F0000
00003F8000
0000FFF000
0007FFFE00
0018000180
ENDCHAR
STARTCHAR Z
ENCODING 90
SWIDTH 685 0
DWIDTH 25 0
BBX 26 21 0 1
BITMAP
07FFFFC0
7FFFFF80
7FFFFF00
7FFFFE00
3801FC00
3803FC00
3807F800
380FF000
101FE000
103FC080
107FC100
107F8100
00FF0100
01FE0300
03FE0700
07FC0700
0FF80F00
0FF00F00
1FFFFF00
3FFFFF00
FFFFFF00
ENDCHAR
STARTCHAR bracketleft
ENCODING 91
SWIDTH 380 0
DWIDTH 14 0
BBX 14 34 2 -4
BITMAP
F004
FFF8
FFE0
FF80
FC00
FC00
FC00
FC00
FC00
FC00
FC00
FC00
FC00
7C00
7C00
7C00
7C00
7C00
7C00
7C00
7C00
7C00
7C00
7C00
7C00
7C00
7C00
7C00
7C00
7C00
7C00
7F00
7FC0
7FF8
ENDCHAR
STARTCHAR backslash
ENCODING 92
SWIDTH 680 0
DWIDTH 25 0
BBX 24 35 0 -3
BITMAP
040000
0E0000
3E0000
FF0000
7F0000
7F8000
3F8000
1FC000
1FE000
0FE000
07F000
07F000
03F800
03F800
01FC00
00FE00
00FE00
007F00
003F00
003F80
001F80
001FC0
000FE0
0007E0
0007F0
0003F0
0001F8
0001FC
0000FC
0000FE
00007E
00003F
00003E
00001C
000010
ENDCHAR
STARTCHAR bracketright
ENCODING 93
SWIDTH 371 0
DWIDTH 13 0
BBX 14 34 -2 -4
BITMAP
803C
7FFC
1FFC
07FC
00FC
00FC
00FC
00FC
00FC
00FC
00FC
00FC
00FC
00FC
00FC
00FC
00F8
00F8
00F8
00F8
00F8
00F8
00F8
00F8
00F8
00F8
00F8
00F8
00F8
00F8
00F8
03F8
0FF8
7FF8
ENDCHAR
STARTCHAR asciicircum
ENCODING 94
SWIDTH 671 0
DWIDTH 24 0
BBX 24 22 0 10
BITMAP
001000
001800
003800
007C00
007C00
00FE00
00FF00
01FF00
01FF80
03FFC0
07F7C0
07F3E0
0FE1F0
0FE0F0
1FC0F8
3FC078
3F803C
7F801E
7F000E
FF000F
7E0000
060000
ENDCHAR
STARTCHAR underscore
ENCODING 95
SWIDTH 840 0
DWIDTH 30 0
BBX 30 7 0 -4
BITMAP
00FFFFFC
FFFFFFFC
FFFFFFFC
FFFFFFFC
FFFFFFFC
FFFFFFFC
03FFFFFC
ENDCHAR
STARTCHAR grave
ENCODING 96
SWIDTH 707 0
DWIDTH 25 0
BBX 8 9 10 21
BITMAP
08
3C
FC
7C
3E
3E
1E
1F
0C
ENDCHAR
STARTCHAR a
ENCODING 97
SWIDTH 572 0
DWIDTH 21 0
BBX 22 21 1 -1
BITMAP
03F800
0FFE00
3FFF00
7C1F80
7C0F80
7C0FC0
7C07C0
7C07C0
3807C0
07E7C0
3FFFC0
7FFFC0
FC0FC0
F80F80
F80F80
FC0F80
FFFF80
7FFF80
1FFFC0
001FF0
001FEC
ENDCHAR
STARTCHAR b
ENCODING 98
SWIDTH 723 0
DWIDTH 26 0
BBX 31 33 -5 -6
BITMAP
000F0000
0FFE0000
FFFE0000
0FFE0000
01FE0000
007E0000
007E0000
007E0000
007E0000
007E0000
007E0000
007E0000
007E0000
007E0000
007E0000
007E0000
007EFF80
007FFFF0
007FFFF8
007F07FC
007E01FC
003E00FE
003E00FE
003E00FE
003E00FC
003C00FC
003C01F8
003C03F8
007E7FE0
00FFFFC0
01FFFE00
07FF8000
08000000
ENDCHAR
STARTCHAR c
ENCODING 99
SWIDTH 589 0
DWIDTH 21 0
BBX 20 20 1 -2
BITMAP
00F800
03FF00
0FFFC0
1FCFE0
3F03E0
7E07E0
7E07E0
FC03E0
FC01C0
FC0000
FC0000
FC0010
FC0010
7E0030
7F0060
7F81E0
3FFFC0
1FFFC0
0FFF00
03FE00
ENDCHAR
STARTCHAR d
ENCODING 100
SWIDTH 713 0
DWIDTH 26 0
BBX 28 34 1 -6
BITMAP
003FFE80
0003FF00
0000FF00
00003F00
00003F00
00003F00
00003F00
00003F00
00003F00
00007E00
00007E00
00007E00
00007E00
00007E00
01FC7E00
07FFFE00
1FFFFE00
3FE7FC00
3F007C00
7E007C00
7C007C00
FC007C00
FC007C00
FC007C00
7C007C00
7E007800
7E007800
3F807800
1FFFF800
0FFFF800
01FFF800
0000FF80
0000FFF0
0000E000
ENDCHAR
STARTCHAR e
ENCODING 101
SWIDTH 593 0
DWIDTH 21 0
BBX 20 19 1 -2
BITMAP
007000
03FE00
0FFF80
1FFFC0
3F0FC0
7E07E0
7C03E0
FC03F0
FC01F0
FFFFF0
FFFFF0
FFFFF0
FC0000
7C0020
7E0040
3F81C0
1FFF80
0FFF00
03FC00
ENDCHAR
STARTCHAR f
ENCODING 102
SWIDTH 507 0
DWIDTH 18 0
BBX 22 49 -2 -14
BITMAP
000100
001FE0
003FF0
007EF8
007C7C
00F83C
00F87C
01F87C
01F07C
01F038
01F000
01F000
01F000
01F800
01F800
01F800
01F800
1FFFF0
1FFFF0
1FFFF0
00F800
00FC00
00FC00
00FC00
00FC00
00FC00
007C00
007C00
007C00
007C00
007E00
007E00
007E00
007E00
003E00
003E00
003E00
003E00
003E00
003E00
783E00
F83E00
FC3E00
FC3E00
F83C00
787C00
3FF800
3FF000
0FE000
ENDCHAR
STARTCHAR g
ENCODING 103
SWIDTH 606 0
DWIDTH 22 0
BBX 24 41 0 -18
BITMAP
000030
0000FC
0001FE
0003FF
0003BF
01FFBE
07FFBE
0FCFC0
1F03E0
3E03F0
3E01F0
7E01F8
7C01F8
7C00F8
7C00F8
7C01F8
7E01F0
3E01F0
3F03E0
1F87E0
0FFFC0
0FFF00
1FFC00
3F0000
3FFC00
3FFFC0
1FFFF0
1FFFF8
3F83FC
7E00FC
7C007E
FC007E
FC003E
FC003E
FC007E
FC007E
7E00FC
3F81F8
1FFFF0
0FFFC0
01FF00
ENDCHAR
STARTCHAR h
ENCODING 104
SWIDTH 678 0
DWIDTH 24 0
BBX 33 34 -5 -3
BITMAP
0006000000
03FE000000
FFFE000000
0FFE000000
00FE000000
007E000000
007E000000
007E000000
007E000000
007E000000
007E000000
007E000000
007E000000
007E000000
007E000000
007E000000
007E200000
007FFF0000
007FFFC000
007F9FE000
007C03F000
007C03F000
007C01F000
007C01F000
007C01F000
007C01F000
007C01F000
007C01F000
007E01F000
01FF01E000
07FFE1F000
080007F800
00003FFE00
0000000180
ENDCHAR
STARTCHAR i
ENCODING 105
SWIDTH 393 0
DWIDTH 14 0
BBX 17 29 -1 0
BITMAP
00C000
01F000
03F800
07F800
07F800
03F800
03F000
01E000
000000
000000
FFF800
3FF800
0FF800
01F800
01F800
01F000
01F000
01F000
01F000
01F000
01F000
01F000
01F000
01F000
01F000
01F000
07F800
1FFE00
7FFF80
ENDCHAR
STARTCHAR j
ENCODING 106
SWIDTH 385 0
DWIDTH 14 0
BBX 15 38 -3 -12
BITMAP
01E0
03F0
07F8
07F8
07F8
03F0
01E0
0000
0000
03FC
3FFC
07FC
00FC
00FC
007C
007C
007C
007E
007E
007E
007E
007E
003E
003E
003E
003E
003E
003E
003E
303E
783E
7C3E
FC3E
7C3E
783E
3EFC
1FF8
0FF0
ENDCHAR
STARTCHAR k
ENCODING 107
SWIDTH 749 0
DWIDTH 27 0
BBX 36 33 -5 -4
BITMAP
00FF000000
FFFF000000
03FF000000
007E000000
007E000000
007E000000
007E7FFFE0
007E0FFF00
007E07FC00
007E03F000
007E07C000
007E0F8000
007E1E0000
007E3C0000
007EF80000
007FFC0000
007FFE0000
003FFE0000
003F3F0000
003E1F0000
003E0F8000
003E0FC000
003E07C000
003E03E000
003E03E000
003E01F000
007F80F800
01FFE0FC00
07FFFC7FC0
180000FFF0
000003FC00
0000078000
0000180000
ENDCHAR
STARTCHAR l
ENCODING 108
SWIDTH 369 0
DWIDTH 13 0
BBX 19 34 -4 -3
BITMAP
FFFE00
1FFE00
03FC00
00FC00
00FC00
00FC00
00FC00
00FC00
00FC00
00FC00
00FC00
00FC00
00FC00
00FC00
00FC00
00FC00
007C00
007C00
007C00
007C00
007C00
007C00
007C00
007C00
007C00
007C00
007C00
007C00
007C00
007C00
00FE00
01FF00
07FFE0
1FC000
ENDCHAR
STARTCHAR m
ENCODING 109
SWIDTH 990 0
DWIDTH 36 0
BBX 43 18 -4 2
BITMAP
000400000000
01FCFC07C000
FFFFFF3FF000
1FFFFFFFF800
01FFFFFFF800
00FE0FF0FC00
00FC07E07C00
007C07C07C00
007C07C07C00
007C07C07C00
007C07C07C00
007807C07C00
007807C07800
007C07C0F800
01FF0783FE00
1FFFC7CFFFC0
00003FF00020
0001FFFC0000
ENDCHAR
STARTCHAR n
ENCODING 110
SWIDTH 643 0
DWIDTH 23 0
BBX 30 18 -4 2
BITMAP
00040000
01FC7E00
FFFFFF00
1FFFFF80
01FFFFC0
00FE0FC0
00FC07C0
007C07C0
007C07C0
007C07C0
007C07C0
007807C0
007807C0
007C07C0
01FE07C0
1FFFC7C0
00003FF0
0001FFFC
ENDCHAR
STARTCHAR o
ENCODING 111
SWIDTH 705 0
DWIDTH 25 0
BBX 25 17 0 0
BITMAP
01FFC000
07FFF000
1FFFFC00
3F80FE00
7F003F00
7E003F00
7C001F80
FC001F80
FC001F80
FC001F80
7C001F80
7E003F00
7F003F00
3F80FE00
1FFFFC00
07FFF000
01FFC000
ENDCHAR
STARTCHAR p
ENCODING 112
SWIDTH 723 0
DWIDTH 26 0
BBX 30 29 -4 -9
BITMAP
007C0000
FFFC0000
1FFC0000
03FFFF00
00FFFFC0
00FFFFE0
00FC03F0
00FC01F8
00FC00F8
00FC00FC
00FC00FC
00FC00FC
007C00FC
007C00F8
007C01F8
007E07F0
007FFFE0
007FFFC0
007DFF00
007C0000
007C0000
007C0000
007C0000
007C0000
007C0000
007E0000
01FFC000
0FFFF800
7FC00400
ENDCHAR
STARTCHAR q
ENCODING 113
SWIDTH 682 0
DWIDTH 25 0
BBX 29 28 0 -8
BITMAP
0000FFF8
0000FF80
01FEFE00
0FFFFC00
1FFFFC00
3F80FC00
7E00FC00
7C00FC00
FC00FC00
FC00FC00
FC00FC00
FC00FC00
7C00F800
7E00F800
3F01F800
3FFFF800
0FFFF800
07FFF800
0000F800
0000F800
0000F800
0000F800
0000F800
0000F800
0001F800
0007FE00
003FFF80
0040FFF8
ENDCHAR
STARTCHAR r
ENCODING 114
SWIDTH 595 0
DWIDTH 21 0
BBX 26 22 -3 0
BITMAP
00020000
003E1E00
07FEFF80
FFFFFF80
0FFFFFC0
00FFFF80
00FE1F80
007E0F00
007C0000
007C0000
007C0000
007C0000
007C0000
007C0000
007C0000
007C0000
007C0000
003E0000
007F8000
01FFF000
07FFFE00
3FF00000
ENDCHAR
STARTCHAR s
ENCODING 115
SWIDTH 533 0
DWIDTH 19 0
BBX 18 23 1 -1
BITMAP
000080
0FE080
3FF880
7FFF80
F83F80
F80F80
F80780
FC0380
FF0180
FFE080
7FF880
3FFE00
1FFF80
87FF80
40FFC0
E01FC0
F00FC0
F807C0
FE0FC0
FFFF80
DFFF00
83F800
800000
ENDCHAR
STARTCHAR t
ENCODING 116
SWIDTH 422 0
DWIDTH 15 0
BBX 16 33 0 -1
BITMAP
01C0
01C0
01C0
03C0
03C0
03C0
07C0
1F80
FF80
FFFF
FFFF
7FFF
1F83
1F80
1F80
1F80
1F80
1F80
1F00
1F00
1F00
1F00
1F00
3F02
3F02
3F02
3F02
3F06
1F9E
1FFC
1FFC
0FF8
03E0
ENDCHAR
STARTCHAR u
ENCODING 117
SWIDTH 614 0
DWIDTH 22 0
BBX 28 20 -3 -2
BITMAP
FFE00000
3FE7FF80
0FE0FF00
07E03F00
07E01F00
07E01F00
07C01F00
07C01F00
07C01F00
07C01E00
07C01E00
07C01E00
07C03E00
03E03E00
03F07E00
03FFFC00
01FFFF00
007FBFF0
00003F80
00002000
ENDCHAR
STARTCHAR v
ENCODING 118
SWIDTH 639 0
DWIDTH 23 0
BBX 32 23 -5 -3
BITMAP
0000C000
003F0000
9FFE0000
7FF8FE00
03F83FFF
01FC0FF8
00FC03E0
00FC0780
007E0700
003E0F00
003F0E00
001F1E00
001F9C00
000FBC00
000FF800
0007F800
0003F000
0003F000
0001E000
0001E000
0000C000
0000C000
00004000
ENDCHAR
STARTCHAR w
ENCODING 119
SWIDTH 805 0
DWIDTH 29 0
BBX 39 21 -5 -1
BITMAP
80FFE0C000
7FFE083FFE
0FF80C0FE0
01F80C0780
01FC1E0F00
00FC1E0F00
00FE3F0E00
007E3F1E00
007F7F1C00
003F7FBC00
003F7FB800
001FEFF800
001FE7F000
000FC7F000
000FC3F000
000783E000
000781E000
000381C000
000300C000
0001008000
0001008000
ENDCHAR
STARTCHAR x
ENCODING 120
SWIDTH 717 0
DWIDTH 26 0
BBX 34 22 -4 -2
BITMAP
0003F00000
03FF000000
FFFC800380
03FC7FFE00
00FE0FF000
007F07C000
003F9F0000
001FFE0000
000FFC0000
0007F00000
0007F00000
0003F80000
0007FC0000
000FFC0000
003F7E0000
007C3F0000
03FC1F8000
3FFF0FC000
003FE7FC00
00001FFFC0
00007FC000
0001800000
ENDCHAR
STARTCHAR y
ENCODING 121
SWIDTH 655 0
DWIDTH 24 0
BBX 25 36 -2 -16
BITMAP
80000000
60000000
3C0F0000
1F83FF80
0FF1FF00
07F07F00
07E03F00
0FE03F00
0FE03F00
0FC03F00
0FC03F00
1FC03F00
1FC03F00
1FC03F00
0FC03F00
0FF07F00
07FFFF00
03FFFF00
01FFBF00
00003F00
00003F00
00003F00
00003F00
00003F00
00003F00
00003F00
07003E00
0F807E00
1F807E00
1F807E00
0F00FC00
0F00FC00
0F81F800
07FFF000
01FFE000
00FF8000
ENDCHAR
STARTCHAR z
ENCODING 122
SWIDTH 549 0
DWIDTH 20 0
BBX 21 20 0 -1
BITMAP
80FFF8
7FFFF0
7FFFF0
7FCFE0
781FC0
781F80
303F80
307F00
30FE00
21FC20
21FC20
23F860
07F060
0FE0E0
1FE0E0
1FC0E0
3FFFE0
7FFFE0
BFFFE0
0000E0
ENDCHAR
STARTCHAR braceleft
ENCODING 123
SWIDTH 708 0
DWIDTH 25 0
BBX 20 34 3 -4
BITMAP
03C010
03FFE0
03FF00
03FC00
03F000
03F000
03F000
03F000
03F000
03F000
03F000
03F000
03F000
03F000
03F000
03F000
1FF000
FFF000
3FF000
07F000
03E000
03E000
01E000
01E000
01E000
01E000
01E000
01E000
01E000
01E000
01E000
01F800
01FE00
01FFE0
ENDCHAR
STARTCHAR bar
ENCODING 124
SWIDTH 304 0
DWIDTH 11 0
BBX 5 33 3 -3
BITMAP
F8
F8
F8
F8
F8
F8
F8
F8
F8
F8
F8
F8
F8
F8
F8
F8
F8
F8
F8
F8
F8
F8
F8
F8
F8
F8
F8
F8
F8
F8
F8
F8
F8
ENDCHAR
STARTCHAR braceright
ENCODING 125
SWIDTH 517 0
DWIDTH 19 0
BBX 20 34 0 -4
BITMAP
003C00
FFFC00
1FFC00
07FC00
01FC00
00FC00
00FC00
00FC00
00FC00
00FC00
00F800
00F800
00F800
00F800
00F800
00F800
00FF00
00FFF0
00FFC0
00FC00
00F800
00F800
00F800
00F800
00F800
00F800
00F800
00F800
00F800
00F800
00F800
03F800
0FF800
7FF800
ENDCHAR
STARTCHAR asciitilde
ENCODING 126
SWIDTH 466 0
DWIDTH 17 0
BBX 17 7 0 8
BITMAP
180080
FFC380
FFFF80
FFFF80
FFFF80
E3FF80
C07E00
ENDCHAR
STARTCHAR uni00A0
ENCODING 160
SWIDTH 320 0
DWIDTH 12 0
BBX 1 1 0 0
BITMAP
00
ENDCHAR
STARTCHAR exclamdown
ENCODING 161
SWIDTH 305 0
DWIDTH 11 0
BBX 11 31 0 -11
BITMAP
0300
07C0
0FE0
0FE0
07E0
0380
0000
0600
0F80
0F80
0F80
0F80
0F80
1F80
1F80
1F80
1F80
1F00
1F00
3F00
3F00
3F00
3F00
3F00
7F00
7F00
7F00
7F00
7F00
7F00
FF00
ENDCHAR
STARTCHAR cent
ENCODING 162
SWIDTH 417 0
DWIDTH 15 0
BBX 15 30 0 -4
BITMAP
03E0
03E0
03C0
03C0
03C0
03C0
0FF0
1FFC
3C3C
781E
783E
F81E
F00C
F000
F000
F000
F002
F802
F802
7C0E
7FBC
3FF8
0FF0
03C0
03C0
03C0
03C0
03E0
03E0
03E0
ENDCHAR
STARTCHAR sterling
ENCODING 163
SWIDTH 658 0
DWIDTH 24 0
BBX 24 28 0 -2
BITMAP
000001
000002
001E02
00FFC6
03FFEE
07FFFE
07E0FE
0FC07E
0FC03C
0F801C
EF800C
FFFF8C
FFFF84
FFFF84
FFE004
03E005
03E081
FFFF81
FFFF83
FFFF83
03FF87
03C007
07C00F
07FFFF
0FFFFF
1FFFFE
3FFFFE
000006
ENDCHAR
STARTCHAR currency
ENCODING 164
SWIDTH 358 0
DWIDTH 13 0
BBX 13 13 0 6
BITMAP
3060
7FF0
FFF8
7FF0
3DE0
38E0
38E0
3DE0
3FE0
7FF0
F378
6020
2000
ENDCHAR
STARTCHAR yen
ENCODING 165
SWIDTH 796 0
DWIDTH 29 0
BBX 35 24 -5 0
BITMAP
0003800000
8FFE000000
7FF81FC020
03F803FFC0
00FC01FC00
007E00F000
003F01C000
001F838000
000FC70000
0007EF0000
0003FE0000
0001FC0000
0000F80000
001FFFC000
001FFF8000
001CF80000
0000FFC000
001FFFC000
001FFF8000
0000F80000
0000F80000
0003FF0000
001FFFE000
00FF801C00
ENDCHAR
STARTCHAR brokenbar
ENCODING 166
SWIDTH 304 0
DWIDTH 11 0
BBX 5 33 3 -3
BITMAP
F8
F8
F8
F8
F8
F8
F8
F8
F8
F8
F8
F8
F8
00
00
00
00
00
00
F8
F8
F8
F8
F8
F8
F8
F8
F8
F8
F8
F8
F8
F8
ENDCHAR
STARTCHAR section
ENCODING 167
SWIDTH 646 0
DWIDTH 23 0
BBX 21 43 1 -10
BITMAP
000010
008010
07FC10
1FFE20
3FFF20
7C07A0
7803E0
7801E0
F800E0
FC0060
7E0020
7F8020
7FF010
3FFC00
1FFF00
0FFFC0
1FFFE0
3FFFF0
7C3FF0
780FF8
7803F8
FC01F8
FC01F8
7F01F8
7FC1F0
7FFFE0
3FFFC0
1FFF80
0FFFC0
03FFE0
40FFF0
401FF0
6007F8
6003F8
7001F8
7801F8
7E01F0
7F83F0
7FFFE0
67FFC0
41FF00
400000
800000
ENDCHAR
STARTCHAR dieresis
ENCODING 168
SWIDTH 708 0
DWIDTH 26 0
BBX 11 4 7 30
BITMAP
70C0
F9E0
F9E0
71E0
ENDCHAR
STARTCHAR copyright
ENCODING 169
SWIDTH 700 0
DWIDTH 25 0
BBX 25 22 0 2
BITMAP
00FFC000
07FFF000
0FFFF800
1F807C00
3E001E00
7C3F0F00
78F38F00
F0E3C780
F1C3C780
F1C08780
F1C00780
F1C00780
F1C04780
F1E04780
71E0C780
78FF8F00
787F0F00
3C081E00
1F007C00
0FE7F800
07FFF000
01FF8000
ENDCHAR
STARTCHAR ordfeminine
ENCODING 170
SWIDTH 399 0
DWIDTH 14 0
BBX 16 14 0 14
BITMAP
3FC0
7FF0
F8F0
F8F0
F8F0
20F8
3FF0
FFF0
F8F0
F0F0
FFF0
FFF0
3FFC
01FF
ENDCHAR
STARTCHAR guillemotleft
ENCODING 171
SWIDTH 424 0
DWIDTH 15 0
BBX 15 19 0 -1
BITMAP
0204
0304
070E
0F1E
0E3C
1E3C
3C78
7CF8
7CF0
F9F0
79F0
7CF8
3C78
1E3C
0E3C
0F1E
070E
0304
0204
ENDCHAR
STARTCHAR logicalnot
ENCODING 172
SWIDTH 541 0
DWIDTH 20 0
BBX 21 19 1 2
BITMAP
800000
800040
800040
800040
8000C0
F000C0
FFFFC0
FFFFC0
FFFFC0
FFFFC0
FFFFC0
C00380
800380
800380
800380
800180
0003C0
000FE0
0010F8
ENDCHAR
STARTCHAR sfthyphen
ENCODING 173
SWIDTH 530 0
DWIDTH 19 0
BBX 19 7 0 9
BITMAP
F00000
FFFFE0
FFFFE0
FFFFE0
FFFFE0
FFFFE0
FC0000
ENDCHAR
STARTCHAR registered
ENCODING 174
SWIDTH 700 0
DWIDTH 25 0
BBX 25 23 0 1
BITMAP
007F8000
03FFE000
0FFFF800
1FC0FC00
3E003E00
7C001F00
7839EF00
FBFFE780
F03FE780
F03CE780
F0380780
F0380780
F0380780
F0380780
F0380780
783E0F00
787FCF00
3D801E00
1E003C00
0F81F800
07FFF000
01FFC000
003E0000
ENDCHAR
STARTCHAR macron
ENCODING 175
SWIDTH 705 0
DWIDTH 25 0
BBX 10 5 9 26
BITMAP
FFC0
FFC0
FFC0
FFC0
FFC0
ENDCHAR
STARTCHAR degree
ENCODING 176
SWIDTH 364 0
DWIDTH 13 0
BBX 9 10 2 16
BITMAP
1C00
7F00
7F80
F780
E380
E380
F780
7F80
7F00
1C00
ENDCHAR
STARTCHAR plusminus
ENCODING 177
SWIDTH 607 0
DWIDTH 22 0
BBX 20 23 1 0
BITMAP
01F800
01F800
01F800
01F800
01F800
FFFC00
FFFFF0
FFFFF0
FFFFF0
FFFFF0
FFF000
01F000
01F000
01F000
01F000
01F000
000000
FFFF00
FFFFF0
FFFFF0
FFFFF0
FFFFF0
FF8000
ENDCHAR
STARTCHAR twosuperior
ENCODING 178
SWIDTH 440 0
DWIDTH 16 0
BBX 15 20 0 13
BITMAP
4000
4180
27F8
3FFC
3FFE
3C3E
381E
301E
303E
307E
20FE
23FA
2FE2
1F86
3E0E
7C0E
FFFE
FFFE
FFFE
01FE
ENDCHAR
STARTCHAR threesuperior
ENCODING 179
SWIDTH 442 0
DWIDTH 16 0
BBX 16 22 0 11
BITMAP
8000
4000
4080
67F0
7FFC
3FFC
3C3E
381E
301E
203E
23FC
03FC
23FE
207E
303F
303F
383E
7FFE
7FFC
6FF8
4180
8000
ENDCHAR
STARTCHAR acute
ENCODING 180
SWIDTH 694 0
DWIDTH 25 0
BBX 7 9 10 26
BITMAP
10
3C
3E
3E
7C
78
78
F0
10
ENDCHAR
STARTCHAR mu
ENCODING 181
SWIDTH 1000 0
DWIDTH 36 0
BBX 28 27 0 -9
BITMAP
FFE00000
3FE7FF80
0FE0FF80
03E03F80
03E01F00
03E01F00
03E01F00
03E01F00
03E01F00
03E01F00
03C01E00
03C01E00
03E01E00
03E03E00
03F07E00
03FFFE00
03FFFF00
03FFDFF0
03C01F80
03C01000
03C00000
03C00000
03C00000
03C00000
03C00000
03C00000
03C00000
ENDCHAR
STARTCHAR paragraph
ENCODING 182
SWIDTH 782 0
DWIDTH 28 0
BBX 31 25 -1 -1
BITMAP
00001FFE
01FFFFF0
0FFFFFC0
3FFFFF00
7F8F1E00
7C0F1E00
F80F1E00
F80F1E00
7C0F1E00
3F0F1C00
1FFF1C00
07FFFC00
00FFFC00
000FFC00
000F3C00
000F3C00
000F3C00
000F3C00
000F3C00
000F3C00
000F7C00
000FFF00
001FFFC0
00FFFFF8
1FFFFE04
ENDCHAR
STARTCHAR periodcentered
ENCODING 183
SWIDTH 226 0
DWIDTH 8 0
BBX 8 6 0 11
BITMAP
18
7E
7F
FF
7F
7E
ENDCHAR
STARTCHAR cedilla
ENCODING 184
SWIDTH 780 0
DWIDTH 28 0
BBX 8 12 10 -7
BITMAP
18
38
38
7C
FE
3F
07
47
67
FF
7E
18
ENDCHAR
STARTCHAR onesuperior
ENCODING 185
SWIDTH 390 0
DWIDTH 14 0
BBX 14 18 0 13
BITMAP
00E0
0FE0
FFE0
1FE0
03E0
03E0
03E0
03E0
03C0
03C0
03C0
03C0
03C0
03C0
03C0
03C0
0FF0
3FFC
ENDCHAR
STARTCHAR ordmasculine
ENCODING 186
SWIDTH 449 0
DWIDTH 16 0
BBX 18 13 -1 15
BITMAP
004000
0FFC00
3FFF00
7E1F80
7C0F80
F80780
F807C0
F80780
780780
7C0F80
3FFF00
1FFC00
03F000
ENDCHAR
STARTCHAR guillemotright
ENCODING 187
SWIDTH 415 0
DWIDTH 15 0
BBX 15 19 0 -1
BITMAP
4080
60C0
E1C0
70E0
78F0
3CF0
3C78
3E7C
1F3E
1F3E
1F3E
3E7C
3C78
3C78
78F0
70E0
E1C0
60C0
4080
ENDCHAR
STARTCHAR onequarter
ENCODING 188
SWIDTH 918 0
DWIDTH 33 0
BBX 33 37 0 -5
BITMAP
0000002000
00E0007000
0FE0007800
FFE000FC00
1FE001F800
03E001F000
03E003F000
03E003E000
03E007C000
03C007C000
03C00F8000
03C01F8000
03C01F0000
03C03E0000
03C03E0800
03C07C0800
03C0F81800
0FF0F83800
1FF9F07800
2005F0F800
0003E1F800
0003C1F800
0007C3F900
000F87F900
000F0FFB00
001F1EFB00
001E3EFF00
003E3FFF00
007C7FFF00
0078FFFF00
00F8007200
00F0007200
01E000F900
03E003FC00
03C03FFF80
03C0000000
0080000000
ENDCHAR
STARTCHAR onehalf
ENCODING 189
SWIDTH 1007 0
DWIDTH 36 0
BBX 36 37 0 -5
BITMAP
0000002000
00E0007000
0FE0007800
FFE000FC00
1FE001F800
03E001F000
03E003F000
03E003E000
03E007C000
03C007C000
03C00F8000
03C01F8000
03C01F0000
03C03E0000
03C03E0000
03C07C0000
03C0F80000
0FF0F80000
1FF9F20000
2005F33F80
0003E3FFC0
0003C3FFE0
0007C3E1F0
000F83C1F0
000F0181F0
001F0101F0
001E0103E0
003E0107F0
007C011FD0
0078017F30
00F800FC30
00F001F070
01E003E0E0
03E007FFE0
03C007FFE0
03C007FFE0
00800FFFE0
ENDCHAR
STARTCHAR threequarters
ENCODING 190
SWIDTH 936 0
DWIDTH 34 0
BBX 34 38 0 -5
BITMAP
8000000000
4000002000
4080003800
67F0007E00
7FFC007C00
3FFC00FC00
3C3E00F800
381E01F000
301E03F000
203E03E000
23FC07C000
03FC07C000
23FE0F8000
207E1F8000
303F1F0000
303F3E0400
383E3E0C00
7FFE7C1C00
7FFC781C00
6FF8F83C00
4181F07800
8001F0F800
0003E1F800
0003C3F880
0007C3F900
000F87F900
000F8F7B00
001F1E7B00
001E3FFF00
003E7FFF00
007CFFFF00
0078007B00
00F8007900
00F0007900
01F003FE00
03E01FFFC0
01C0200000
0040000000
ENDCHAR
STARTCHAR questiondown
ENCODING 191
SWIDTH 568 0
DWIDTH 20 0
BBX 21 33 0 -12
BITMAP
000380
0007E0
000FF0
000FF0
0007F0
0003E0
000000
000800
000F00
000F80
001F80
001F00
003F00
07FF00
1FFF00
3FFF00
7F8300
FE0000
FC0000
FC0000
F80000
F80008
FC0008
FC0010
FE0030
7F0070
3FC0F0
1FFFE0
07FFE0
007EE0
000060
000060
000020
ENDCHAR
STARTCHAR Agrave
ENCODING 192
SWIDTH 788 0
DWIDTH 28 0
BBX 42 44 -6 -8
BITMAP
000010000000
000070000000
0001F8000000
0000F8000000
0000F8000000
00007C000000
00007C000000
00003C000000
000030000000
000000000000
000000000000
008000000000
007FFC000000
000FFC000000
0007FE000000
0001FE000000
00007F000000
00007F000000
00007F800000
0000FF800000
0000FFC00000
0001EFC00000
0001CFE00000
0003C7E00000
000387F00000
000783F00000
000703F80000
000FFFF80000
000FFFFC0000
001FFFFC0000
001FFEFE0000
003800FE0000
0038007F0000
0070007F0000
01F0003F8000
07F8003F8000
1FFE001FC000
FFFF801FE000
0001C01FFC00
0000001FFFC0
0000003FF800
0000007F8000
000000F80000
000001800000
ENDCHAR
STARTCHAR Aacute
ENCODING 193
SWIDTH 788 0
DWIDTH 28 0
BBX 42 44 -6 -8
BITMAP
000008000000
00001F000000
00001F000000
00001F000000
00003E000000
00003E000000
00003C000000
000078000000
000008000000
000000000000
000000000000
008000000000
007FFC000000
000FFC000000
0007FE000000
0001FE000000
00007F000000
00007F000000
00007F800000
0000FF800000
0000FFC00000
0001EFC00000
0001CFE00000
0003C7E00000
000387F00000
000783F00000
000703F80000
000FFFF80000
000FFFFC0000
001FFFFC0000
001FFEFE0000
003800FE0000
0038007F0000
0070007F0000
01F0003F8000
07F8003F8000
1FFE001FC000
FFFF801FE000
0001C01FFC00
0000001FFFC0
0000003FF800
0000007F8000
000000F80000
000001800000
ENDCHAR
STARTCHAR Acircumflex
ENCODING 194
SWIDTH 788 0
DWIDTH 28 0
BBX 42 42 -6 -8
BITMAP
000018000000
00003C000000
00003E000000
00007F000000
0000FF800000
0001FF800000
0003E3C00000
000380E00000
000000000000
008000000000
007FFC000000
000FFC000000
0007FE000000
0001FE000000
00007F000000
00007F000000
00007F800000
0000FF800000
0000FFC00000
0001EFC00000
0001CFE00000
0003C7E00000
000387F00000
000783F00000
000703F80000
000FFFF80000
000FFFFC0000
001FFFFC0000
001FFEFE0000
003800FE0000
0038007F0000
0070007F0000
01F0003F8000
07F8003F8000
1FFE001FC000
FFFF801FE000
0001C01FFC00
0000001FFFC0
0000003FF800
0000007F8000
000000F80000
000001800000
ENDCHAR
STARTCHAR Atilde
ENCODING 195
SWIDTH 788 0
DWIDTH 28 0
BBX 42 41 -6 -8
BITMAP
000000400000
0001FCC00000
0001FFC00000
0001FFC00000
0001FFC00000
00010F800000
000100000000
000000000000
008000000000
007FFC000000
000FFC000000
0007FE000000
0001FE000000
00007F000000
00007F000000
00007F800000
0000FF800000
0000FFC00000
0001EFC00000
0001CFE00000
0003C7E00000
000387F00000
000783F00000
000703F80000
000FFFF80000
000FFFFC0000
001FFFFC0000
001FFEFE0000
003800FE0000
0038007F0000
0070007F0000
01F0003F8000
07F8003F8000
1FFE001FC000
FFFF801FE000
0001C01FFC00
0000001FFFC0
0000003FF800
0000007F8000
000000F80000
000001800000
ENDCHAR
STARTCHAR Adieresis
ENCODING 196
SWIDTH 788 0
DWIDTH 28 0
BBX 42 39 -6 -8
BITMAP
0000C3800000
0001E7C00000
0001E7C00000
0001E3800000
000000000000
000000000000
008000000000
007FFC000000
000FFC000000
0007FE000000
0001FE000000
00007F000000
00007F000000
00007F800000
0000FF800000
0000FFC00000
0001EFC00000
0001CFE00000
0003C7E00000
000387F00000
000783F00000
000703F80000
000FFFF80000
000FFFFC0000
001FFFFC0000
001FFEFE0000
003800FE0000
0038007F0000
0070007F0000
01F0003F8000
07F8003F8000
1FFE001FC000
FFFF801FE000
0001C01FFC00
0000001FFFC0
0000003FF800
0000007F8000
000000F80000
000001800000
ENDCHAR
STARTCHAR Aring
ENCODING 197
SWIDTH 788 0
DWIDTH 28 0
BBX 42 39 -6 -8
BITMAP
000008000000
00003E000000
00007F000000
000063000000
000063000000
000077000000
00807E000000
007FFC000000
000FFC000000
0007FE000000
0001FE000000
00007F000000
00007F000000
00007F800000
0000FF800000
0000FFC00000
0001EFC00000
0001CFE00000
0003C7E00000
000387F00000
000783F00000
000703F80000
000FFFF80000
000FFFFC0000
001FFFFC0000
001FFEFE0000
003800FE0000
0038007F0000
0070007F0000
01F0003F8000
07F8003F8000
1FFE001FC000
FFFF801FE000
0001C01FFC00
0000001FFFC0
0000003FF800
0000007F8000
000000F80000
000001800000
ENDCHAR
STARTCHAR AE
ENCODING 198
SWIDTH 1019 0
DWIDTH 37 0
BBX 44 28 -9 -2
BITMAP
000000007FF0
000FFFFFFFF0
0007FFFFFFF0
0001FFFFFCF0
0000FFFE00F0
00003FFE0070
00001EFE0870
00001EFE0830
00003CFE0830
000078FE1830
000078FE1810
0000F0FE3810
0000E0FE3810
0001E0FFF810
0003C0FFF810
000380FFF820
000780FFF820
000FFFFC3820
000FFFFC3820
001FFFFC1860
001E00FC1860
003C007C0860
0078007C08E0
007000FC00E0
03F003FFFFE0
0FFC1FFFFFE0
FFFE7FFFFFE0
07FFC0000000
ENDCHAR
STARTCHAR Ccedilla
ENCODING 199
SWIDTH 766 0
DWIDTH 28 0
BBX 26 39 1 -12
BITMAP
00000040
00000040
001F00C0
00FFE0C0
07FFF9C0
0FFFFF80
1FF87F80
3FC01F80
7F800F80
7F000780
FF000380
FE000100
FE000100
FE000100
FC000100
FC000000
FC000000
FE000000
FE000100
FE000100
7E000100
7F000300
3F800300
3FC00780
1FE01F80
0FFFFF80
07FFFC80
01FFF880
003FC040
001C0040
00380000
007E0000
007F0000
008F8000
00038000
00238000
00778000
00FF0000
003E0000
ENDCHAR
STARTCHAR Egrave
ENCODING 200
SWIDTH 781 0
DWIDTH 28 0
BBX 30 38 -3 -1
BITMAP
00004000
0003C000
0007C000
0003E000
0003E000
0001E000
0001F000
0000F000
0000C000
00000000
00000000
000003FC
007FFFFC
FFFFFFFC
0FFFFE7C
01FE007C
00FE0038
007E0438
007E0418
007E0418
007E0C08
007E0C08
007E1C08
007E3C04
007FFC08
007FFC08
007FFC08
007FFC08
007E3C18
007E1C18
007E1C18
007E0C38
007E0438
007E0438
007E0078
03FFFFF8
0FFFFFF8
7FFFFFF8
ENDCHAR
STARTCHAR Eacute
ENCODING 201
SWIDTH 781 0
DWIDTH 28 0
BBX 30 37 -3 -1
BITMAP
00006000
00007800
00007C00
0000F800
0000F800
0000F000
0001F000
0000E000
00002000
00000000
000003FC
007FFFFC
FFFFFFFC
0FFFFE7C
01FE007C
00FE0038
007E0438
007E0418
007E0418
007E0C08
007E0C08
007E1C08
007E3C04
007FFC08
007FFC08
007FFC08
007FFC08
007E3C18
007E1C18
007E1C18
007E0C38
007E0438
007E0438
007E0078
03FFFFF8
0FFFFFF8
7FFFFFF8
ENDCHAR
STARTCHAR Ecircumflex
ENCODING 202
SWIDTH 781 0
DWIDTH 28 0
BBX 30 38 -3 -1
BITMAP
0000C000
0001E000
0003E000
0007F000
000FF800
000FFC00
001E3C00
00380E00
00000000
00000000
00000000
000003FC
007FFFFC
FFFFFFFC
0FFFFE7C
01FE007C
00FE0038
007E0438
007E0418
007E0418
007E0C08
007E0C08
007E1C08
007E3C04
007FFC08
007FFC08
007FFC08
007FFC08
007E3C18
007E1C18
007E1C18
007E0C38
007E0438
007E0438
007E0078
03FFFFF8
0FFFFFF8
7FFFFFF8
ENDCHAR
STARTCHAR Edieresis
ENCODING 203
SWIDTH 781 0
DWIDTH 28 0
BBX 30 33 -3 -1
BITMAP
00061C00
000F3E00
000F3E00
000F1C00
00000000
00000000
000003FC
007FFFFC
FFFFFFFC
0FFFFE7C
01FE007C
00FE0038
007E0438
007E0418
007E0418
007E0C08
007E0C08
007E1C08
007E3C04
007FFC08
007FFC08
007FFC08
007FFC08
007E3C18
007E1C18
007E1C18
007E0C38
007E0438
007E0438
007E0078
03FFFFF8
0FFFFFF8
7FFFFFF8
ENDCHAR
STARTCHAR Igrave
ENCODING 204
SWIDTH 445 0
DWIDTH 16 0
BBX 22 40 -3 -3
BITMAP
003000
00F000
01F000
01F800
00F800
00F800
007C00
003C00
003000
000000
000000
000000
FFFFFC
1FFFF0
07FF80
00FE00
00FE00
00FE00
00FE00
00FE00
00FE00
00FE00
00FE00
007E00
007E00
007C00
007C00
007C00
007C00
007C00
007C00
007C00
007C00
007C00
007C00
007C00
007C00
00FE00
07FFC0
7FFFFC
ENDCHAR
STARTCHAR Iacute
ENCODING 205
SWIDTH 445 0
DWIDTH 16 0
BBX 22 39 -3 -3
BITMAP
000800
001F00
001F00
001F00
003E00
003E00
003C00
007800
000800
000000
000000
FFFFFC
1FFFF0
07FF80
00FE00
00FE00
00FE00
00FE00
00FE00
00FE00
00FE00
00FE00
007E00
007E00
007C00
007C00
007C00
007C00
007C00
007C00
007C00
007C00
007C00
007C00
007C00
007C00
00FE00
07FFC0
7FFFFC
ENDCHAR
STARTCHAR Icircumflex
ENCODING 206
SWIDTH 445 0
DWIDTH 16 0
BBX 22 39 -3 -3
BITMAP
003800
003800
007C00
00FE00
01FF00
03EF80
03C780
0701C0
000000
000000
000000
FFFFFC
1FFFF0
07FF80
00FE00
00FE00
00FE00
00FE00
00FE00
00FE00
00FE00
00FE00
007E00
007E00
007C00
007C00
007C00
007C00
007C00
007C00
007C00
007C00
007C00
007C00
007C00
007C00
00FE00
07FFC0
7FFFFC
ENDCHAR
STARTCHAR Idieresis
ENCODING 207
SWIDTH 445 0
DWIDTH 16 0
BBX 22 35 -3 -3
BITMAP
01C700
03C780
03CF80
03C700
000000
000000
000000
FFFFFC
1FFFF0
07FF80
00FE00
00FE00
00FE00
00FE00
00FE00
00FE00
00FE00
00FE00
007E00
007E00
007C00
007C00
007C00
007C00
007C00
007C00
007C00
007C00
007C00
007C00
007C00
007C00
00FE00
07FFC0
7FFFFC
ENDCHAR
STARTCHAR Eth
ENCODING 208
SWIDTH 1000 0
DWIDTH 36 0
BBX 35 25 0 -1
BITMAP
FFFFFF8000
0FFFFFF000
03FFFFFC00
007F87FE00
003F807F00
003F803F80
003F801F80
003F801FC0
003F800FC0
003F800FC0
0FDF800FC0
0FFFFE0FE0
0FFFFE0FE0
0FFFFE0FC0
1FFFF80FC0
001F800FC0
001F800FC0
001F801FC0
001F801F80
001F803F00
001F007F00
003FFFFE00
00FFFFF800
01FFFFE000
1FFF000000
ENDCHAR
STARTCHAR Ntilde
ENCODING 209
SWIDTH 840 0
DWIDTH 30 0
BBX 37 37 -3 -2
BITMAP
0000010000
0007E30000
0007FF0000
0007FF0000
0007FF0000
00043E0000
0008000000
0000000000
0000000008
F400FFFFF0
3FFE0FFFC0
0FFF03FF00
01FF807800
007FC03800
007FC03800
007FE03800
007FF03800
007FF83800
0077FC3800
0073FE3800
0071FE3800
0070FF3800
00707FB800
00707FF800
00703FF800
00701FF800
00700FF800
007007F800
007003F800
007001F800
007001F800
01FE00F800
07FF807800
3FFFF03800
FFFFFF1800
0000000800
0000000800
ENDCHAR
STARTCHAR Ograve
ENCODING 210
SWIDTH 808 0
DWIDTH 29 0
BBX 27 34 1 0
BITMAP
00020000
000E0000
003F0000
001F0000
001F0000
000F8000
00078000
0007C000
00020000
00000000
00000000
00000000
007FE000
03FFF800
0FFFFE00
1FF0FF00
3FC03F80
7F801FC0
7F000FC0
FE000FE0
FE000FE0
FC0007E0
FC0007E0
FC0007E0
FC0007E0
FE000FE0
FE000FE0
7E000FC0
7F001FC0
3F803F80
1FE0FF00
0FFFFE00
07FFF800
00FFE000
ENDCHAR
STARTCHAR Oacute
ENCODING 211
SWIDTH 808 0
DWIDTH 29 0
BBX 27 33 1 0
BITMAP
00020000
0007E000
0007C000
0007C000
000F8000
000F8000
000F0000
000E0000
00020000
00000000
00000000
007FE000
03FFF800
0FFFFE00
1FF0FF00
3FC03F80
7F801FC0
7F000FC0
FE000FE0
FE000FE0
FC0007E0
FC0007E0
FC0007E0
FC0007E0
FE000FE0
FE000FE0
7E000FC0
7F001FC0
3F803F80
1FE0FF00
0FFFFE00
07FFF800
00FFE000
ENDCHAR
STARTCHAR Ocircumflex
ENCODING 212
SWIDTH 808 0
DWIDTH 29 0
BBX 27 33 1 0
BITMAP
00060000
000F0000
001F0000
003F8000
007FC000
007FE000
00F1F000
01C07000
00000000
00000000
00000000
007FE000
03FFF800
0FFFFE00
1FF0FF00
3FC03F80
7F801FC0
7F000FC0
FE000FE0
FE000FE0
FC0007E0
FC0007E0
FC0007E0
FC0007E0
FE000FE0
FE000FE0
7E000FC0
7F001FC0
3F803F80
1FE0FF00
0FFFFE00
07FFF800
00FFE000
ENDCHAR
STARTCHAR Otilde
ENCODING 213
SWIDTH 808 0
DWIDTH 29 0
BBX 27 32 1 0
BITMAP
00001000
007E3000
007FF000
007FF000
007FF000
0043E000
00800000
00000000
00000000
00000000
007FE000
03FFF800
0FFFFE00
1FF0FF00
3FC03F80
7F801FC0
7F000FC0
FE000FE0
FE000FE0
FC0007E0
FC0007E0
FC0007E0
FC0007E0
FE000FE0
FE000FE0
7E000FC0
7F001FC0
3F803F80
1FE0FF00
0FFFFE00
07FFF800
00FFE000
ENDCHAR
STARTCHAR Odieresis
ENCODING 214
SWIDTH 808 0
DWIDTH 29 0
BBX 27 29 1 0
BITMAP
0071C000
00F1E000
00F9E000
0071E000
00000000
00000000
00000000
007FE000
03FFF800
0FFFFE00
1FF0FF00
3FC03F80
7F801FC0
7F000FC0
FE000FE0
FE000FE0
FC0007E0
FC0007E0
FC0007E0
FC0007E0
FE000FE0
FE000FE0
7E000FC0
7F001FC0
3F803F80
1FE0FF00
0FFFFE00
07FFF800
00FFE000
ENDCHAR
STARTCHAR multiply
ENCODING 215
SWIDTH 556 0
DWIDTH 20 0
BBX 20 19 0 3
BITMAP
080100
1C0380
3E07C0
7F0FE0
FF9FF0
3FDFE0
1FFFC0
0FFF80
07FF00
03FC00
03FC00
07FE00
0FFF00
1FFF80
3F9FC0
7F0FE0
7E07F0
3C03C0
180180
ENDCHAR
STARTCHAR Oslash
ENCODING 216
SWIDTH 808 0
DWIDTH 29 0
BBX 27 30 1 -4
BITMAP
00001800
00001C00
00003F00
00007F00
007FFE00
03FFFE00
0FFFFE00
1FF1FF00
3FC1FF80
7F83FFC0
7F03EFC0
FE07EFE0
FE0FCFE0
FC0FC7E0
FC1F87E0
FC1F07E0
FC3F07E0
FE3E0FE0
FE7C0FE0
7E7C0FC0
7FF81FC0
3FF83F80
1FF0FF00
0FFFFE00
07FFF800
07FFE000
07800000
0F800000
0F000000
02000000
ENDCHAR
STARTCHAR Ugrave
ENCODING 217
SWIDTH 725 0
DWIDTH 26 0
BBX 32 36 -3 -1
BITMAP
00008000
0003C000
000FC000
0007C000
0003E000
0003E000
0001E000
0001F000
0000C000
00000000
00000000
00003FFF
FFC00FFC
1FFF83F8
03FC01E0
03F801E0
03F801E0
03F801E0
03F001E0
03F001E0
03F001E0
03F001E0
03F001E0
03F000E0
03F000E0
03F000E0
03F000E0
03F000E0
03F801C0
03F801C0
01FC03C0
01FE0780
00FFFF80
007FFF00
003FFC00
000FF000
ENDCHAR
STARTCHAR Uacute
ENCODING 218
SWIDTH 725 0
DWIDTH 26 0
BBX 32 36 -3 -1
BITMAP
0000C000
0000F000
0001F800
0001F000
0001E000
0003E000
0003C000
0001C000
00004000
00000000
00000000
00003FFF
FFC00FFC
1FFF83F8
03FC01E0
03F801E0
03F801E0
03F801E0
03F001E0
03F001E0
03F001E0
03F001E0
03F001E0
03F000E0
03F000E0
03F000E0
03F000E0
03F000E0
03F801C0
03F801C0
01FC03C0
01FE0780
00FFFF80
007FFF00
003FFC00
000FF000
ENDCHAR
STARTCHAR Ucircumflex
ENCODING 219
SWIDTH 725 0
DWIDTH 26 0
BBX 32 35 -3 -1
BITMAP
0000C000
0001E000
0003E000
0007F000
000FF800
000FFC00
001E3C00
00380E00
00000000
00000000
00003FFF
FFC00FFC
1FFF83F8
03FC01E0
03F801E0
03F801E0
03F801E0
03F001E0
03F001E0
03F001E0
03F001E0
03F001E0
03F000E0
03F000E0
03F000E0
03F000E0
03F000E0
03F801C0
03F801C0
01FC03C0
01FE0780
00FFFF80
007FFF00
003FFC00
000FF000
ENDCHAR
STARTCHAR Udieresis
ENCODING 220
SWIDTH 725 0
DWIDTH 26 0
BBX 32 32 -3 -1
BITMAP
00061C00
000F3E00
000F3E00
000F1C00
00000000
00000000
00000000
00003FFF
FFC00FFC
1FFF83F8
03FC01E0
03F801E0
03F801E0
03F801E0
03F001E0
03F001E0
03F001E0
03F001E0
03F001E0
03F000E0
03F000E0
03F000E0
03F000E0
03F000E0
03F801C0
03F801C0
01FC03C0
01FE0780
00FFFF80
007FFF00
003FFC00
000FF000
ENDCHAR
STARTCHAR Yacute
ENCODING 221
SWIDTH 848 0
DWIDTH 31 0
BBX 38 37 -5 -3
BITMAP
0000030000
000003C000
000003E000
000007C000
000007C000
0000078000
00000F8000
0000070000
0000010000
0000000000
0000300000
FFFFC00000
1FFF820000
03FE01FFFC
007F007FF0
003F801F80
001FC01E00
000FE03C00
0007F07800
0003F0F000
0001F9E000
0001FFC000
0000FF8000
00007F0000
00003E0000
00003E0000
00003E0000
00003F0000
00003F0000
00003F0000
00003F0000
00003F0000
00003F0000
00003F8000
0000FFF000
0007FFFE00
0018000180
ENDCHAR
STARTCHAR Thorn
ENCODING 222
SWIDTH 745 0
DWIDTH 27 0
BBX 30 24 -3 -1
BITMAP
FFFFFC00
1FFFE000
03FF0000
00FC0000
00FC0000
00FFFE00
00FFFFC0
00FFFFF0
00FC07F8
00FC00FC
00FC007C
00FC007C
00FC007C
00FC01F8
00FC1FF0
00FFFFC0
00FFFE00
00FFC000
00FE0000
00FE0000
00FE0000
03FF8000
0FFFF000
7FFFFE00
ENDCHAR
STARTCHAR germandbls
ENCODING 223
SWIDTH 986 0
DWIDTH 36 0
BBX 38 47 -2 -14
BITMAP
0007FC0000
000FFF0000
001FFF8000
003F07C000
007C03E000
007C01E000
00F801F000
00F801F000
00F801F000
00F800F000
01F800F000
01F801F000
01F801F000
01F801F000
01F803E000
1FF807E000
1FF807C000
1FF80FC000
00F80F8000
00F81F0000
00FC1F0000
00FC1F0000
00FC1F0000
007C1F8000
007C1FC000
007C0FF000
007C0FFE00
007C07FFC0
007E03FFE0
007E10FFF8
007E083FF8
003E0C07FC
003E0E01FC
003E0F00FC
003E1F80FC
003E1FFFF8
003E1FFFF0
003E19FFC0
783E181C00
F83E100000
FC3E100000
F83E000000
F83C000000
787C000000
3FF8000000
1FF0000000
0FE0000000
ENDCHAR
STARTCHAR agrave
ENCODING 224
SWIDTH 572 0
DWIDTH 21 0
BBX 22 32 1 -1
BITMAP
000800
003C00
00FC00
007C00
003E00
003E00
001E00
001F00
000C00
000000
000000
03F800
0FFE00
3FFF00
7C1F80
7C0F80
7C0FC0
7C07C0
7C07C0
3807C0
07E7C0
3FFFC0
7FFFC0
FC0FC0
F80F80
F80F80
FC0F80
FFFF80
7FFF80
1FFFC0
001FF0
001FEC
ENDCHAR
STARTCHAR aacute
ENCODING 225
SWIDTH 572 0
DWIDTH 21 0
BBX 22 32 1 -1
BITMAP
001800
001E00
003F00
003E00
003C00
007C00
007800
003800
000800
000000
000000
03F800
0FFE00
3FFF00
7C1F80
7C0F80
7C0FC0
7C07C0
7C07C0
3807C0
07E7C0
3FFFC0
7FFFC0
FC0FC0
F80F80
F80F80
FC0F80
FFFF80
7FFF80
1FFFC0
001FF0
001FEC
ENDCHAR
STARTCHAR acircumflex
ENCODING 226
SWIDTH 572 0
DWIDTH 21 0
BBX 22 32 1 -1
BITMAP
003000
007800
00FC00
01FC00
01FE00
03FF00
078F80
0F0380
000000
000000
000000
03F800
0FFE00
3FFF00
7C1F80
7C0F80
7C0FC0
7C07C0
7C07C0
3807C0
07E7C0
3FFFC0
7FFFC0
FC0FC0
F80F80
F80F80
FC0F80
FFFF80
7FFF80
1FFFC0
001FF0
001FEC
ENDCHAR
STARTCHAR atilde
ENCODING 227
SWIDTH 572 0
DWIDTH 21 0
BBX 22 30 1 -1
BITMAP
000080
03F180
03FF80
03FF80
03FF80
021F00
040000
000000
000000
03F800
0FFE00
3FFF00
7C1F80
7C0F80
7C0FC0
7C07C0
7C07C0
3807C0
07E7C0
3FFFC0
7FFFC0
FC0FC0
F80F80
F80F80
FC0F80
FFFF80
7FFF80
1FFFC0
001FF0
001FEC
ENDCHAR
STARTCHAR adieresis
ENCODING 228
SWIDTH 572 0
DWIDTH 21 0
BBX 22 28 1 -1
BITMAP
070E00
079E00
079E00
079E00
000000
000000
000000
03F800
0FFE00
3FFF00
7C1F80
7C0F80
7C0FC0
7C07C0
7C07C0
3807C0
07E7C0
3FFFC0
7FFFC0
FC0FC0
F80F80
F80F80
FC0F80
FFFF80
7FFF80
1FFFC0
001FF0
001FEC
ENDCHAR
STARTCHAR aring
ENCODING 229
SWIDTH 572 0
DWIDTH 21 0
BBX 22 28 1 -1
BITMAP
007800
00FC00
01FC00
01CE00
01CE00
00FC00
00FC00
03F800
0FFE00
3FFF00
7C1F80
7C0F80
7C0FC0
7C07C0
7C07C0
3807C0
07E7C0
3FFFC0
7FFFC0
FC0FC0
F80F80
F80F80
FC0F80
FFFF80
7FFF80
1FFFC0
001FF0
001FEC
ENDCHAR
STARTCHAR ae
ENCODING 230
SWIDTH 1022 0
DWIDTH 37 0
BBX 36 21 0 -1
BITMAP
03F8000000
0FFE007800
1FFF07FF00
3E0F8FFF80
7C0FDFFFC0
7E07FF07E0
7E07FE03F0
7C07FE01F0
3807FC01F0
07E7FFFFF0
3FFFFFFFF0
7FFFFFFF80
FC0FFC0000
FC0FFE0020
FC0FFF0060
FC0F9FFFC0
7FFF8FFF80
3FFF83FE00
0FFFE00000
001FF80000
001FE40000
ENDCHAR
STARTCHAR ccedilla
ENCODING 231
SWIDTH 589 0
DWIDTH 21 0
BBX 20 30 1 -12
BITMAP
00F800
03FF00
0FFFC0
1FCFE0
3F03E0
7E07E0
7E07E0
FC03E0
FC01C0
FC0000
FC0000
FC0010
FC0010
7E0030
7F0060
7F81E0
3FFFC0
1FFFC0
0FFF80
03FE00
00E000
00E000
01F000
03FC00
007C00
001C00
011C00
01FC00
03FC00
01F800
ENDCHAR
STARTCHAR egrave
ENCODING 232
SWIDTH 593 0
DWIDTH 21 0
BBX 20 30 1 -2
BITMAP
000800
003800
00FC00
007C00
007C00
003E00
003E00
001E00
001800
000000
000000
007000
03FE00
0FFF80
1FFFC0
3F0FC0
7E07E0
7C03E0
FC03F0
FC01F0
FFFFF0
FFFFF0
FFFFF0
FC0000
7C0020
7E0040
3F81C0
1FFF80
0FFF00
03FC00
ENDCHAR
STARTCHAR eacute
ENCODING 233
SWIDTH 593 0
DWIDTH 21 0
BBX 20 30 1 -2
BITMAP
001000
003C00
003E00
003C00
007C00
007800
00F800
007000
001000
000000
000000
007000
03FE00
0FFF80
1FFFC0
3F0FC0
7E07E0
7C03E0
FC03F0
FC01F0
FFFFF0
FFFFF0
FFFFF0
FC0000
7C0020
7E0040
3F81C0
1FFF80
0FFF00
03FC00
ENDCHAR
STARTCHAR ecircumflex
ENCODING 234
SWIDTH 593 0
DWIDTH 21 0
BBX 20 30 1 -2
BITMAP
003000
007800
00FC00
01FC00
01FE00
03FF00
078F80
0F0380
000000
000000
000000
007000
03FE00
0FFF80
1FFFC0
3F0FC0
7E07E0
7C03E0
FC03F0
FC01F0
FFFFF0
FFFFF0
FFFFF0
FC0000
7C0020
7E0040
3F81C0
1FFF80
0FFF00
03FC00
ENDCHAR
STARTCHAR edieresis
ENCODING 235
SWIDTH 593 0
DWIDTH 21 0
BBX 20 26 1 -2
BITMAP
038700
03CF00
03CF80
03C700
000000
000000
000000
007000
03FE00
0FFF80
1FFFC0
3F0FC0
7E07E0
7C03E0
FC03F0
FC01F0
FFFFF0
FFFFF0
FFFFF0
FC0000
7C0020
7E0040
3F81C0
1FFF80
0FFF00
03FC00
ENDCHAR
STARTCHAR igrave
ENCODING 236
SWIDTH 393 0
DWIDTH 14 0
BBX 17 31 -1 0
BITMAP
00C000
03C000
07C000
07E000
03E000
03E000
01F000
00F000
00C000
000000
000000
000000
FFF800
3FF800
0FF800
01F800
01F800
01F000
01F000
01F000
01F000
01F000
01F000
01F000
01F000
01F000
01F000
01F000
07F800
1FFE00
7FFF80
ENDCHAR
STARTCHAR iacute
ENCODING 237
SWIDTH 393 0
DWIDTH 14 0
BBX 17 31 -1 0
BITMAP
006000
007800
007C00
00F800
00F800
00F000
01F000
00E000
002000
000000
000000
000000
FFF800
3FF800
0FF800
01F800
01F800
01F000
01F000
01F000
01F000
01F000
01F000
01F000
01F000
01F000
01F000
01F000
07F800
1FFE00
7FFF80
ENDCHAR
STARTCHAR icircumflex
ENCODING 238
SWIDTH 393 0
DWIDTH 14 0
BBX 17 31 -1 0
BITMAP
00C000
01E000
01F000
03F800
07FC00
0FFC00
1F1E00
1C0F00
000000
000000
000000
000000
FFF800
3FF800
0FF800
01F800
01F800
01F000
01F000
01F000
01F000
01F000
01F000
01F000
01F000
01F000
01F000
01F000
07F800
1FFE00
7FFF80
ENDCHAR
STARTCHAR idieresis
ENCODING 239
SWIDTH 393 0
DWIDTH 14 0
BBX 17 27 -1 0
BITMAP
070C00
0F9E00
0F9E00
071E00
000000
000000
000000
000000
FFF800
3FF800
0FF800
01F800
01F800
01F000
01F000
01F000
01F000
01F000
01F000
01F000
01F000
01F000
01F000
01F000
07F800
1FFE00
7FFF80
ENDCHAR
STARTCHAR eth
ENCODING 240
SWIDTH 672 0
DWIDTH 24 0
BBX 24 32 0 -3
BITMAP
1C0008
038018
00E07E
0079FC
003FF0
001FE0
001FC0
007FC0
01FFE0
03FBE0
03F1F0
01E1F8
0080F8
0000FC
00007E
01FFFE
0FFFFE
1FFFFF
3F81FF
7E007F
FC003F
FC003F
FC003F
F8003F
F8003F
FC003F
FC003E
7E007E
7F00FC
3FEFF8
0FFFF0
03FFC0
ENDCHAR
STARTCHAR ntilde
ENCODING 241
SWIDTH 643 0
DWIDTH 23 0
BBX 30 26 -4 2
BITMAP
00000200
000FC600
000FFE00
000FFE00
000FFE00
00087C00
00100000
00000000
00040000
01FC7E00
FFFFFF00
1FFFFF80
01FFFFC0
00FE0FC0
00FC07C0
007C07C0
007C07C0
007C07C0
007C07C0
007807C0
007807C0
007C07C0
01FE07C0
1FFFC7C0
00003FF0
0001FFFC
ENDCHAR
STARTCHAR ograve
ENCODING 242
SWIDTH 705 0
DWIDTH 25 0
BBX 25 29 0 0
BITMAP
00020000
001E0000
003E0000
001F0000
001F0000
000F0000
000F8000
00078000
00060000
00000000
00000000
00000000
01FFC000
07FFF000
1FFFFC00
3F80FE00
7F003F00
7E003F00
7C001F80
FC001F80
FC001F80
FC001F80
7C001F80
7E003F00
7F003F00
3F80FE00
1FFFFC00
07FFF000
01FFC000
ENDCHAR
STARTCHAR oacute
ENCODING 243
SWIDTH 705 0
DWIDTH 25 0
BBX 25 28 0 0
BITMAP
00040000
000F0000
000F8000
000F8000
001F0000
001E0000
001E0000
003C0000
00040000
00000000
00000000
01FFC000
07FFF000
1FFFFC00
3F80FE00
7F003F00
7E003F00
7C001F80
FC001F80
FC001F80
FC001F80
7C001F80
7E003F00
7F003F00
3F80FE00
1FFFFC00
07FFF000
01FFC000
ENDCHAR
STARTCHAR ocircumflex
ENCODING 244
SWIDTH 705 0
DWIDTH 25 0
BBX 25 28 0 0
BITMAP
000C0000
001E0000
001F0000
003F8000
007FC000
00FFC000
01F1E000
01C0F000
00000000
00000000
00000000
01FFC000
07FFF000
1FFFFC00
3F80FE00
7F003F00
7E003F00
7C001F80
FC001F80
FC001F80
FC001F80
7C001F80
7E003F00
7F003F00
3F80FE00
1FFFFC00
07FFF000
01FFC000
ENDCHAR
STARTCHAR otilde
ENCODING 245
SWIDTH 705 0
DWIDTH 25 0
BBX 25 27 0 0
BITMAP
00002000
00FC6000
00FFE000
00FFE000
00FFE000
0087C000
00800000
00000000
00000000
00000000
01FFC000
07FFF000
1FFFFC00
3F80FE00
7F003F00
7E003F00
7C001F80
FC001F80
FC001F80
FC001F80
7C001F80
7E003F00
7F003F00
3F80FE00
1FFFFC00
07FFF000
01FFC000
ENDCHAR
STARTCHAR odieresis
ENCODING 246
SWIDTH 705 0
DWIDTH 25 0
BBX 25 25 0 0
BITMAP
0071C000
00F1E000
00F3E000
00F1C000
00000000
00000000
00000000
00000000
01FFC000
07FFF000
1FFFFC00
3F80FE00
7F003F00
7E003F00
7C001F80
FC001F80
FC001F80
FC001F80
7C001F80
7E003F00
7F003F00
3F80FE00
1FFFFC00
07FFF000
01FFC000
ENDCHAR
STARTCHAR divide
ENCODING 247
SWIDTH 504 0
DWIDTH 18 0
BBX 18 21 0 0
BITMAP
004000
01F000
03F800
03F800
03F800
01F800
004000
000000
FFC000
FFFFC0
FFFFC0
FFFFC0
FFFFC0
000000
000000
00E000
03F000
03F800
03F800
03F800
01F000
ENDCHAR
STARTCHAR oslash
ENCODING 248
SWIDTH 705 0
DWIDTH 25 0
BBX 25 27 0 -5
BITMAP
00002000
00007000
00007C00
0000FC00
0000F800
01FFF800
07FFF000
1FFFFC00
3F87FE00
7F07FF00
7E0FFF00
7C0F9F80
FC1F1F80
FC3F1F80
FC3E1F80
7C7E1F80
7E7C3F00
3FF83F00
3FF8FE00
1FFFFC00
07FFF000
03FFC000
07C00000
07C00000
0F800000
03000000
01000000
ENDCHAR
STARTCHAR ugrave
ENCODING 249
SWIDTH 614 0
DWIDTH 22 0
BBX 28 31 -3 -2
BITMAP
00020000
001E0000
003F0000
001F0000
001F0000
000F8000
000F8000
00078000
00060000
00000000
00000000
FFE00000
3FE7FF80
0FE0FF00
07E03F00
07E01F00
07E01F00
07C01F00
07C01F00
07C01F00
07C01E00
07C01E00
07C01E00
07C03E00
03E03E00
03F07E00
03FFFC00
01FFFF00
007FBFF0
00003F80
00002000
ENDCHAR
STARTCHAR uacute
ENCODING 250
SWIDTH 614 0
DWIDTH 22 0
BBX 28 31 -3 -2
BITMAP
00030000
0003C000
0003E000
0007C000
0007C000
00078000
000F0000
00070000
00010000
00000000
00000000
FFE00000
3FE7FF80
0FE0FF00
07E03F00
07E01F00
07E01F00
07C01F00
07C01F00
07C01F00
07C01E00
07C01E00
07C01E00
07C03E00
03E03E00
03F07E00
03FFFC00
01FFFF00
007FBFF0
00003F80
00002000
ENDCHAR
STARTCHAR ucircumflex
ENCODING 251
SWIDTH 614 0
DWIDTH 22 0
BBX 28 31 -3 -2
BITMAP
00070000
00070000
000F8000
001FC000
003FE000
007DF000
0078F000
00E03800
00000000
00000000
00000000
FFE00000
3FE7FF80
0FE0FF00
07E03F00
07E01F00
07E01F00
07C01F00
07C01F00
07C01F00
07C01E00
07C01E00
07C01E00
07C03E00
03E03E00
03F07E00
03FFFC00
01FFFF00
007FBFF0
00003F80
00002000
ENDCHAR
STARTCHAR udieresis
ENCODING 252
SWIDTH 614 0
DWIDTH 22 0
BBX 28 27 -3 -2
BITMAP
0070E000
0079E000
0079E000
0079E000
00000000
00000000
00000000
FFE00000
3FE7FF80
0FE0FF00
07E03F00
07E01F00
07E01F00
07C01F00
07C01F00
07C01F00
07C01E00
07C01E00
07C01E00
07C03E00
03E03E00
03F07E00
03FFFC00
01FFFF00
007FBFF0
00003F80
00002000
ENDCHAR
STARTCHAR yacute
ENCODING 253
SWIDTH 655 0
DWIDTH 24 0
BBX 25 46 -2 -16
BITMAP
00060000
00078000
0007C000
000F8000
000F8000
000F0000
001E0000
000E0000
00020000
00000000
80000000
60000000
3C0F0000
1F83FF80
0FF1FF00
07F07F00
07E03F00
0FE03F00
0FE03F00
0FC03F00
0FC03F00
1FC03F00
1FC03F00
1FC03F00
0FC03F00
0FF07F00
07FFFF00
03FFFF00
01FFBF00
00003F00
00003F00
00003F00
00003F00
00003F00
00003F00
00003F00
07003E00
0F807E00
1F807E00
1F807E00
0F00FC00
0F00FC00
0F81F800
07FFF000
01FFE000
00FF8000
ENDCHAR
STARTCHAR thorn
ENCODING 254
SWIDTH 734 0
DWIDTH 26 0
BBX 30 40 -3 -15
BITMAP
FFFC0000
1FFC0000
07FC0000
01FC0000
00FC0000
00FC0000
00FC0000
00FC0000
00FC0000
00FC0000
00FC0000
00FC0000
00FC0000
00FCF800
00FFFF80
00FFFFE0
00FF0FF0
00FC03F8
00FC00F8
00FC00FC
007C00FC
007C00FC
007C00FC
007C00FC
007C01F8
007C03F8
007F8FF0
007FFFE0
007FFF80
007CFE00
007C0000
007C0000
007C0000
007C0000
007C0000
007C0000
007E0000
01FFC000
0FFFF800
7FF80400
ENDCHAR
STARTCHAR ydieresis
ENCODING 255
SWIDTH 655 0
DWIDTH 24 0
BBX 25 42 -2 -16
BITMAP
00E1C000
00F3C000
00F3C000
00F3C000
00000000
00000000
80000000
60000000
3C0F0000
1F83FF80
0FF1FF00
07F07F00
07E03F00
0FE03F00
0FE03F00
0FC03F00
0FC03F00
1FC03F00
1FC03F00
1FC03F00
0FC03F00
0FF07F00
07FFFF00
03FFFF00
01FFBF00
00003F00
00003F00
00003F00
00003F00
00003F00
00003F00
00003F00
07003E00
0F807E00
1F807E00
1F807E00
0F00FC00
0F00FC00
0F81F800
07FFF000
01FFE000
00FF8000
ENDCHAR
STARTCHAR dotlessi
ENCODING 305
SWIDTH 393 0
DWIDTH 14 0
BBX 17 19 -1 0
BITMAP
FFF800
3FF800
0FF800
01F800
01F800
01F000
01F000
01F000
01F000
01F000
01F000
01F000
01F000
01F000
01F000
01F000
07F800
1FFE00
7FFF80
ENDCHAR
STARTCHAR Lslash
ENCODING 321
SWIDTH 713 0
DWIDTH 26 0
BBX 28 28 -3 0
BITMAP
FFFFFE00
0FFFE000
01FF8000
00FE0000
007E0000
007E0000
007E0000
007E2000
007EE000
007FF000
007FF000
007FF800
00FFF010
03FF8010
1FFE0010
0FFE0010
0FFE0030
0F7E0030
047E0030
007E0070
007E0070
007E0070
007E00F0
003E00F0
00FFFFF0
03FFFFF0
0FFFFFF0
7E000000
ENDCHAR
STARTCHAR lslash
ENCODING 322
SWIDTH 365 0
DWIDTH 13 0
BBX 19 34 -4 -3
BITMAP
FFFC00
1FFC00
03FC00
00FC00
00FC00
00FC00
00FC00
00FC00
00FC00
00FC00
00FC40
00FFE0
00FFE0
00FFE0
01FF80
0FFE00
3FFC00
1FFC00
1FFC00
0EFC00
087C00
007C00
007800
007800
007800
007800
007800
007800
007800
007800
00FC00
03FF00
07FFC0
1FC020
ENDCHAR
STARTCHAR OE
ENCODING 338
SWIDTH 1195 0
DWIDTH 43 0
BBX 42 27 0 -1
BITMAP
000000001FC0
000007FFFFC0
000FFFFFFFC0
0000FFFFE7C0
00001FF00380
000007F00380
01FF87F02180
07FFE7F02180
1FFFF7F04180
3F81FFF04080
7F00FFF0C080
7E007FF0C080
7C007FF1C040
FC003FFFC080
FC003FFFC080
FC003FFFC080
FC003FFFC080
7C007FF1C180
7E007FF1C180
7E00FFF0C180
3F01FBF04380
1FCFF3F04380
0FFFE3F02380
03FF83F00780
00181FFFFF80
0000FFFFFF80
0007FFFFFF80
ENDCHAR
STARTCHAR oe
ENCODING 339
SWIDTH 1087 0
DWIDTH 39 0
BBX 39 18 0 -2
BITMAP
03FF803F00
0FFFE1FFC0
1FE7F7FFF0
3F01FFFFF8
7E00FFC1F8
7C007F80FC
FC007F007C
F8007F007E
FC007FFFFE
FC007FFFFE
7C007FFFFE
7E00FF0000
3F01FF0004
1FCFFF8008
0FFFCFE038
03FF0FFFF0
000003FFC0
000000FF00
ENDCHAR
STARTCHAR Scaron
ENCODING 352
SWIDTH 661 0
DWIDTH 24 0
BBX 23 39 0 -4
BITMAP
0381E0
03C3C0
01FF80
00FF80
007F00
007E00
003C00
001800
000000
000000
000002
003002
07FF86
1FFFEE
3FCFFE
7E00FC
7C007C
FC001C
FE000C
FF8004
7FF804
7FFF00
3FFFE0
1FFFF0
07FFFC
00FFFC
200FFE
2003FE
1000FE
38007E
3C007E
3E00FE
3F81FC
3FFFF8
33FFE0
207F80
200000
200000
400000
ENDCHAR
STARTCHAR scaron
ENCODING 353
SWIDTH 533 0
DWIDTH 19 0
BBX 18 33 1 -1
BITMAP
0C0700
1F1E00
0FBC00
07FC00
03F800
01F000
01E000
00E000
000000
000000
000080
0FE080
3FF880
7FFF80
F83F80
F80F80
F80780
FC0380
FF0180
FFE080
7FF880
3FFE00
1FFF80
87FF80
40FFC0
E01FC0
F00FC0
F807C0
FE0FC0
FFFF80
DFFF00
83F800
800000
ENDCHAR
STARTCHAR Ydieresis
ENCODING 376
SWIDTH 848 0
DWIDTH 31 0
BBX 38 33 -5 -3
BITMAP
000071C000
0000F3E000
0000F3E000
0000F1C000
0000000000
0000000000
0000300000
FFFFC00000
1FFF820000
03FE01FFFC
007F007FF0
003F801F80
001FC01E00
000FE03C00
0007F07800
0003F0F000
0001F9E000
0001FFC000
0000FF8000
00007F0000
00003E0000
00003E0000
00003E0000
00003F0000
00003F0000
00003F0000
00003F0000
00003F0000
00003F0000
00003F8000
0000FFF000
0007FFFE00
0018000180
ENDCHAR
STARTCHAR Zcaron
ENCODING 381
SWIDTH 685 0
DWIDTH 25 0
BBX 26 32 0 1
BITMAP
01C07000
01F1E000
00FFC000
007FC000
003F8000
001F0000
001E0000
000C0000
00000000
00000000
00000000
07FFFFC0
7FFFFF80
7FFFFF00
7FFFFE00
3801FC00
3803FC00
3807F800
380FF000
101FE000
103FC080
107FC100
107F8100
00FF0100
01FE0300
03FE0700
07FC0700
0FF80F00
0FF00F00
1FFFFF00
3FFFFF00
FFFFFF00
ENDCHAR
STARTCHAR zcaron
ENCODING 382
SWIDTH 549 0
DWIDTH 20 0
BBX 21 32 0 -1
BITMAP
0E0380
078F80
03FF00
03FE00
01FC00
00F800
007800
003000
000000
000000
000000
000000
80FFF8
7FFFF0
7FFFF0
7FCFE0
781FC0
781F80
303F80
307F00
30FE00
21FC20
21FC20
23F860
07F060
0FE0E0
1FE0E0
1FC0E0
3FFFE0
7FFFE0
BFFFE0
0000E0
ENDCHAR
STARTCHAR circumflex
ENCODING 710
SWIDTH 714 0
DWIDTH 26 0
BBX 13 8 8 25
BITMAP
0600
0F00
0F80
1FC0
3FE0
7FE0
F8F0
E038
ENDCHAR
STARTCHAR caron
ENCODING 711
SWIDTH 714 0
DWIDTH 26 0
BBX 13 8 8 25
BITMAP
E038
F8F0
7FE0
3FE0
1FC0
0F80
0F00
0600
ENDCHAR
STARTCHAR breve
ENCODING 728
SWIDTH 715 0
DWIDTH 26 0
BBX 12 7 8 27
BITMAP
4020
E070
78F0
7FE0
3FE0
1FC0
0F80
ENDCHAR
STARTCHAR dotaccent
ENCODING 729
SWIDTH 708 0
DWIDTH 26 0
BBX 4 4 11 30
BITMAP
E0
F0
F0
F0
ENDCHAR
STARTCHAR ring
ENCODING 730
SWIDTH 704 0
DWIDTH 25 0
BBX 8 7 10 26
BITMAP
3C
7E
E7
E7
E7
7E
3C
ENDCHAR
STARTCHAR ogonek
ENCODING 731
SWIDTH 988 0
DWIDTH 36 0
BBX 13 9 11 -4
BITMAP
3000
7000
7000
F000
F800
FC18
7FF8
7FF0
3FC0
ENDCHAR
STARTCHAR tilde
ENCODING 732
SWIDTH 707 0
DWIDTH 25 0
BBX 11 7 9 25
BITMAP
0020
FC60
FFE0
FFE0
FFE0
87C0
8000
ENDCHAR
STARTCHAR hungarumlaut
ENCODING 733
SWIDTH 671 0
DWIDTH 24 0
BBX 13 9 7 26
BITMAP
30C0
3CF0
3FF8
7DF0
7DE0
7BE0
FBC0
71C0
1040
ENDCHAR
STARTCHAR endash
ENCODING 8211
SWIDTH 576 0
DWIDTH 21 0
BBX 17 5 2 11
BITMAP
FFFF00
FFFF00
FFFF00
FFFF80
FFFF80
ENDCHAR
STARTCHAR emdash
ENCODING 8212
SWIDTH 993 0
DWIDTH 36 0
BBX 32 6 2 10
BITMAP
00FFFFFE
FFFFFFFE
FFFFFFFE
FFFFFFFF
FFFFFFFF
000007FF
ENDCHAR
STARTCHAR quoteleft
ENCODING 8216
SWIDTH 261 0
DWIDTH 9 0
BBX 9 11 0 15
BITMAP
0400
0F00
1F80
1F80
3F00
3F00
7E00
7E00
FE00
1C00
0400
ENDCHAR
STARTCHAR quoteright
ENCODING 8217
SWIDTH 301 0
DWIDTH 11 0
BBX 9 11 1 15
BITMAP
1800
1E00
3F80
3F00
3F00
7E00
7E00
7C00
FC00
7800
0800
ENDCHAR
STARTCHAR quotesinglbase
ENCODING 8218
SWIDTH 332 0
DWIDTH 12 0
BBX 9 11 1 -3
BITMAP
1800
1E00
3F80
3F00
3F00
7E00
7E00
7C00
FC00
7800
0800
ENDCHAR
STARTCHAR quotedblleft
ENCODING 8220
SWIDTH 477 0
DWIDTH 17 0
BBX 17 11 0 15
BITMAP
040C00
0F0F00
1F9F80
1F9F00
3F3F00
3F3F00
7E7E00
7E7E00
FEFE00
1C1C00
040400
ENDCHAR
STARTCHAR quotedblright
ENCODING 8221
SWIDTH 477 0
DWIDTH 17 0
BBX 17 11 0 15
BITMAP
181800
1E1E00
1FBF80
3FBF00
3F3F00
3E7E00
7E7E00
7C7C00
FCFC00
387800
080800
ENDCHAR
STARTCHAR quotedblbase
ENCODING 8222
SWIDTH 477 0
DWIDTH 17 0
BBX 17 11 0 -3
BITMAP
181800
1E1E00
1FBF80
3FBF00
3F3F00
3E7E00
7E7E00
7C7C00
FCFC00
387800
080800
ENDCHAR
STARTCHAR dagger
ENCODING 8224
SWIDTH 487 0
DWIDTH 18 0
BBX 16 41 1 -11
BITMAP
07E0
07E0
07E0
07E0
07E0
07E0
07E0
07E0
C7E0
FFFF
FFFF
FFFF
FFFF
FFFE
07E0
07E0
07E0
03E0
03E0
03E0
03E0
03E0
03E0
03E0
03E0
03E0
03E0
03E0
03E0
03C0
03C0
03C0
03C0
03C0
03C0
03C0
03C0
03C0
03C0
03C0
03C0
ENDCHAR
STARTCHAR daggerdbl
ENCODING 8225
SWIDTH 497 0
DWIDTH 18 0
BBX 16 41 1 -11
BITMAP
07E0
07E0
07E0
07E0
07E0
07E0
07E0
07E0
C7E0
FFFF
FFFF
FFFF
FFFF
FFFE
07E0
07E0
07E0
07FF
FFFF
FFFF
FFFF
FFFF
3FFF
03E0
03E0
03E0
03E0
03E0
03E0
03C0
03C0
03C0
03C0
03C0
03C0
03C0
03C0
03C0
03C0
03C0
03C0
ENDCHAR
STARTCHAR bullet
ENCODING 8226
SWIDTH 275 0
DWIDTH 10 0
BBX 10 10 0 9
BITMAP
0C00
3F00
7F80
FFC0
FFC0
FFC0
FFC0
7F80
7F80
3E00
ENDCHAR
STARTCHAR ellipsis
ENCODING 8230
SWIDTH 787 0
DWIDTH 28 0
BBX 28 6 0 -3
BITMAP
3C0F03C0
7E1F87E0
FF1FC7F0
FF3FCFF0
7E1FC7F0
3C0F83E0
ENDCHAR
STARTCHAR perthousand
ENCODING 8240
SWIDTH 888 0
DWIDTH 32 0
BBX 33 30 0 -2
BITMAP
0001C00000
0001F00000
3F81F00000
7FC3E00000
FBC3E00000
F1E7E00000
F1E7C00000
F1E7C00000
FBCF800000
7FCF800000
3F9F000000
001F000000
001F000000
003E000000
003E000000
007C000000
007C000000
0078000000
00F8000000
00F1FC7E00
01F3FEFF00
01F3DFF780
01E78FE380
03E78FC380
03C78FE780
07C3DFFF80
0783FEFF00
0781FC7E00
0F80000000
0100000000
ENDCHAR
STARTCHAR guilsinglleft
ENCODING 8249
SWIDTH 234 0
DWIDTH 8 0
BBX 8 19 0 -1
BITMAP
02
03
07
0F
0E
1E
3C
7C
7C
F8
78
7C
3C
1E
0E
0F
07
03
02
ENDCHAR
STARTCHAR guilsinglright
ENCODING 8250
SWIDTH 223 0
DWIDTH 8 0
BBX 8 19 0 -1
BITMAP
40
60
E0
70
78
3C
3C
3E
1F
1F
1F
3E
3C
3C
78
70
E0
60
40
ENDCHAR
STARTCHAR fraction
ENCODING 8260
SWIDTH 600 0
DWIDTH 22 0
BBX 24 34 -1 -4
BITMAP
000020
000078
00007C
0000FF
0000FE
0001FC
0003FC
0003F8
0007F8
0007F0
000FE0
000FE0
001FC0
003F80
003F80
007F00
007F00
00FE00
00FC00
01FC00
03F800
03F000
07F000
07E000
0FE000
1FC000
1F8000
3F8000
3F0000
7F0000
7E0000
FC0000
7C0000
180000
ENDCHAR
STARTCHAR Euro
ENCODING 8364
SWIDTH 590 0
DWIDTH 21 0
BBX 23 22 -1 2
BITMAP
000700
003FE0
00FFF0
01F9F8
03E07C
07C07C
07C07C
0F807C
FF8078
FFFE00
FFFE00
FFE100
0F8000
FFFF02
FFFF02
FFFF84
0FE00C
07F01C
03FCF8
03FFF0
00FFE0
007FC0
ENDCHAR
STARTCHAR trademark
ENCODING 8482
SWIDTH 624 0
DWIDTH 22 0
BBX 24 16 0 11
BITMAP
080000
180000
180000
380000
F80000
FF0000
300000
303200
33FFF8
7073D8
70718C
71318C
71218C
72719C
3F8BAF
3C0C40
ENDCHAR
STARTCHAR minus
ENCODING 8722
SWIDTH 549 0
DWIDTH 20 0
BBX 19 7 0 9
BITMAP
780000
FFFFE0
FFFFE0
FFFFE0
FFFFE0
FFFFE0
FC0000
ENDCHAR
STARTCHAR fi
ENCODING 64257
SWIDTH 757 0
DWIDTH 27 0
BBX 31 49 -2 -14
BITMAP
00018000
000FFC00
001FFE00
003F7F00
007C1F80
00F80FC0
00F807C0
00F80FE0
01F00FE0
01F01FE0
01F01FE0
01F00FC0
01F007C0
01F80000
01F80000
01F80000
01F80000
1FFFFFE0
1FFFFFE0
1FFFFFE0
00F807E0
00FC07E0
00FC07C0
00FC07C0
00FC07C0
00FC07C0
007C07C0
007C07C0
007C07C0
007C07C0
007E07C0
007E07C0
007E1FE0
007E3FF8
007EFFFE
003E0000
003E0000
003E0000
003E0000
003E0000
783E0000
F83E0000
FC3E0000
FC3E0000
F83C0000
787C0000
3FF80000
3FF00000
0FE00000
ENDCHAR
STARTCHAR fl
ENCODING 64258
SWIDTH 776 0
DWIDTH 28 0
BBX 32 49 -2 -14
BITMAP
0001E000
000FFC00
001FFE00
003E3F00
007C1F80
00F80FC0
00F80FC0
00F807C0
01F007E0
01F007E0
01F007E0
01F007E0
01F007E0
01F807E0
01F807E0
01F807E0
01F807E0
1FFFE7E0
1FFFE7E0
1FFFE7E0
00F807E0
00FC07E0
00FC07E0
00FC03E0
00FC03E0
00FC03E0
007C03E0
007C03E0
007C03E0
007C03C0
007E03C0
007E03C0
007E03C0
007E03C0
007E07F0
003E0FF8
003E3FFE
003EFE01
003E0000
003E0000
783E0000
F83E0000
FC3E0000
FC3E0000
F83C0000
787C0000
3FF80000
3FF00000
0FE00000
ENDCHAR
STARTCHAR .notdef
ENCODING -1
SWIDTH 320 0
DWIDTH 12 0
BBX 1 1 0 0
BITMAP
00
ENDCHAR
ENDFONT
